<svg width="328" height="328" viewBox="0 0 328 328" fill="none" xmlns="http://www.w3.org/2000/svg">
<path d="M164 0L167.33 79.5697C168.198 100.326 194.893 108.165 206.845 91.1726L252.665 26.0344L212.447 94.7728C201.956 112.704 220.176 133.73 239.417 125.898L313.18 95.8719L242.184 131.955C223.663 141.368 227.623 168.906 248.045 172.72L326.331 187.34L247.097 179.311C226.428 177.217 214.87 202.525 229.989 216.774L287.943 271.397L225.628 221.806C209.372 208.87 185.967 223.912 190.981 244.072L210.204 321.357L184.592 245.948C177.911 226.277 150.089 226.277 143.408 245.948L117.796 321.357L137.019 244.072C142.033 223.912 118.628 208.87 102.372 221.806L40.0571 271.397L98.0114 216.774C113.13 202.525 101.572 177.217 80.9029 179.311L1.66928 187.34L79.9552 172.72C100.377 168.906 104.336 141.368 85.8163 131.955L14.8204 95.8719L88.5826 125.898C107.824 133.73 126.044 112.704 115.553 94.7728L75.3349 26.0344L121.155 91.1726C133.107 108.165 159.802 100.326 160.67 79.5697L164 0Z" fill="#00FFE0"/>
<path d="M148.827 186.103V140.898H170.137L188.671 165.89L190.221 178.031H191.642V140.898H207.012V186.103H185.701L167.038 160.982L165.552 148.906H164.196V186.103H148.827Z" fill="black"/>
<path d="M121.078 186.103V140.898H137.61V186.103H121.078Z" fill="black"/>
</svg>
