<svg width="246" height="246" viewBox="0 0 246 246" fill="none" xmlns="http://www.w3.org/2000/svg">
<path d="M106.94 15.6587L115.578 66.6479C117.921 80.4784 136.867 82.694 142.338 69.7773L162.508 22.157L144.494 70.6341C139.608 83.7832 154.908 95.1747 166.104 86.724L207.382 55.5687L167.543 88.5442C156.737 97.4887 164.291 115.004 178.213 113.283L229.538 106.941L178.549 115.579C164.718 117.922 162.503 136.868 175.419 142.339L223.04 162.509L174.563 144.495C161.414 139.609 150.022 154.909 158.473 166.105L189.628 207.383L156.653 167.544C147.708 156.738 130.193 164.292 131.913 178.214L138.256 229.539L129.617 178.55C127.274 164.719 108.329 162.504 102.858 175.42L82.6879 223.041L100.702 174.564C105.588 161.414 90.2882 150.023 79.0918 158.474L37.8139 189.629L77.6528 156.653C88.4588 147.709 80.9048 130.194 66.9831 131.914L15.6578 138.257L66.647 129.618C80.4775 127.275 82.6931 108.33 69.7764 102.859L22.1561 82.6888L70.6332 100.702C83.7823 105.589 95.1738 90.2891 86.7231 79.0927L55.5678 37.8148L88.5433 77.6537C97.4878 88.4597 115.003 80.9058 113.282 66.984L106.94 15.6587Z" fill="#00FFE0"/>
<path d="M94.8456 121.28C93.73 113.661 99.0526 106.573 106.734 105.448C110.424 104.908 114.167 105.843 117.164 108.055L119.998 110.147L122.114 107.33C124.343 104.362 127.668 102.383 131.358 101.843C139.04 100.718 146.171 105.983 147.287 113.602C147.822 117.262 146.872 120.979 144.635 123.957L142.519 126.774L125.71 149.16L103.189 132.533L100.355 130.441C97.3579 128.228 95.3816 124.941 94.8456 121.28Z" fill="black"/>
</svg>
