<svg width="349" height="310" viewBox="0 0 349 310" fill="none" xmlns="http://www.w3.org/2000/svg">
<path d="M87.4666 144.594L151.162 292.882L254.177 168.664L87.4666 144.594Z" fill="white"/>
<path d="M240.12 97.5147L306.958 71.8368L250.126 28.3174L130.991 11.1025L64.1823 36.8137L121.014 80.333L240.12 97.5147Z" fill="white"/>
<path d="M118.362 82.2066L61.2041 38.4465L18.6283 84.7232L84.5276 140.277L118.362 82.2066Z" fill="white"/>
<path d="M87.4361 141.443L255.072 165.64L239.04 100.524L121.2 83.4926L87.4361 141.443Z" fill="white"/>
<path d="M23.1567 92.6094L141.708 278.796L83.6421 143.612L23.1567 92.6094Z" fill="white"/>
<path d="M164.185 282.039L330.555 136.98L258.092 168.78L164.185 282.039Z" fill="white"/>
<path d="M242.153 100.086L258.207 165.328L337.126 130.705L309.344 74.2455L242.153 100.086Z" fill="white"/>
<path d="M340.802 131.584L340.815 131.398C340.714 131.048 340.661 130.92 340.636 130.824L340.452 130.344L311.49 71.5909C311.293 71.2967 311.206 71.1972 311.058 71.0934L310.734 70.8217L251.685 25.5905C251.479 25.4203 251.235 25.3411 250.959 25.2907L131.051 7.99099C130.772 7.97163 130.524 7.95441 130.266 8.09225L60.3871 34.9613C60.2257 35.0435 60.0312 35.1547 59.8964 35.3011L15.0964 84.0097C15.0964 84.0097 14.9883 84.2203 14.953 84.2801C14.8407 84.5528 14.8364 84.6148 14.8342 84.6458C14.8321 84.6768 14.8235 84.8009 14.8149 84.9249C14.9108 85.3366 14.9354 85.4318 14.962 85.496L15.2087 85.9805L149.902 297.125L150.141 297.267C150.476 297.383 150.381 297.408 150.85 297.378L151.586 297.086L152.143 296.689L340.398 132.459C340.398 132.459 340.434 132.4 340.502 132.311C340.573 132.191 340.608 132.131 340.643 132.071L340.802 131.584ZM130.991 11.1028L250.097 28.2846L306.927 71.8349L240.12 97.515L121.014 80.3333L64.1823 36.8139L130.991 11.1028ZM255.072 165.641L87.436 141.444L121.2 83.4933L239.042 100.494L255.074 165.61L255.072 165.641ZM61.204 38.4456L118.36 82.2367L84.5254 140.307L18.6282 84.7223L61.235 38.4477L61.204 38.4456ZM23.1566 92.6086L83.673 143.613L141.739 278.797L23.1566 92.6086ZM151.162 292.882L87.4665 144.593L254.177 168.663L151.16 292.913L151.162 292.882ZM164.185 282.038L258.092 168.78L330.555 136.98L164.183 282.069L164.185 282.038ZM258.207 165.329L242.153 100.087L309.344 74.2463L337.128 130.674L258.207 165.329Z" fill="black"/>
</svg>
