<svg width="1728" height="366" viewBox="0 0 1728 366" fill="none" xmlns="http://www.w3.org/2000/svg">
<rect x="-885.402" y="236.05" width="3367" height="129.709" transform="rotate(-4.00835 -885.402 236.05)" fill="#00FFE0" stroke="black"/>
<path fill-rule="evenodd" clip-rule="evenodd" d="M723.112 150.87L715.677 151.391L713.389 184.262L720.824 183.741L721.365 175.914L722.108 174.305L724.115 183.51L731.898 182.965L727.41 165.561L734.341 150.083L726.248 150.65L720.079 167.009L719.15 167.074L722.656 157.132L723.112 150.87ZM729.563 187.412L733.668 187.124L734.137 213.26L733.818 218.15L734.36 218.112L736.536 186.962L738.704 186.81L736.416 219.681L732.311 219.969L731.842 193.833L732.161 188.943L731.619 188.981L729.443 220.131L727.275 220.283L729.563 187.412ZM716.667 216.042L718.647 188.216L721.009 188.05L719.009 216.15C718.871 218.068 719.396 218.888 720.518 218.809C721.641 218.73 722.24 217.832 722.378 215.914L724.339 187.817L726.701 187.652L724.709 215.868C724.506 219.075 723.348 220.87 720.56 221.065C717.54 221.276 716.485 219.559 716.708 216.078L716.667 216.042ZM745.632 186.286L741.799 186.555L739.511 219.425L743.77 219.127C745.938 218.975 746.96 218.008 747.552 215.902C748.274 213.437 749.67 192.818 749.455 189.756C749.404 189.02 749.327 188.48 749.095 187.951C748.621 186.738 747.452 186.158 745.632 186.286ZM745.219 215.365C744.974 216.317 744.5 216.778 743.649 216.838L743.61 216.841L741.984 216.954L743.973 188.7L745.754 188.575C746.296 188.537 746.578 188.673 746.798 189.047C746.934 189.31 746.991 189.579 747.021 190.005C747.217 192.795 745.624 213.935 745.219 215.365ZM754.72 209.909L755.496 198.212L762.93 197.691L762.039 211.071C761.932 212.325 761.998 212.709 762.463 212.677C762.85 212.65 763.066 212.401 763.12 211.501L764.916 184.935L772.35 184.414L770.591 210.394C770.284 214.894 767.459 217.895 762.658 218.232C756.346 218.674 754.356 215.815 754.756 209.868L754.72 209.909ZM774.405 184.309L772.731 208.18C772.342 214.282 774.509 217.44 780.82 216.998C786.164 216.624 788.391 213.43 788.718 208.656L790.474 183.183L783.04 183.704L781.172 210.353C781.11 211.137 780.971 211.38 780.584 211.407C780.197 211.434 779.879 211.34 779.971 210.437L781.839 183.788L774.405 184.309ZM792.253 183.019L798.719 182.566L797.665 204.174L797.195 210.243L798.125 210.178L798.594 204.109L800.423 182.447L811.768 181.652L810.675 203.262L810.205 209.331L811.135 209.266L811.604 203.197L813.51 181.529L820.054 181.071L816.953 213.999L804.988 214.837L805.782 193.403L806.243 187.218L805.314 187.283L804.853 193.468L802.781 214.992L790.816 215.83L792.253 183.019ZM834.807 180.037L821.951 180.938L819.663 213.809L832.557 212.905L833.037 205.862L827.538 206.248L827.983 200.375L832.939 200.028L833.457 192.982L828.462 193.332L828.829 187.465L834.327 187.08L834.807 180.037ZM836.898 179.891L844.255 179.375L842.484 205.2L848.447 204.782L847.968 211.825L834.61 212.761L836.898 179.891ZM735.735 149.985L743.44 149.445C746.654 149.22 748.837 150.391 750.225 152.436C750.791 153.292 751.21 154.275 751.289 155.398C751.463 157.879 751.303 161.706 750.288 163.88C749.609 165.29 748.192 166.169 746.36 166.686L746.423 167.578L749.533 168.099L749.787 181.711L742.778 182.202L742.492 170.345L741.718 170.399L740.881 182.335L733.446 182.856L735.735 149.985ZM742.327 163.542C742.869 163.504 743.168 163.327 743.406 162.843C743.642 162.321 744.09 155.942 744.06 155.516C744.046 155.322 743.999 155.208 743.872 155.061C743.657 154.765 743.372 154.59 743.101 154.609L742.83 154.628L742.21 163.55L742.327 163.542ZM769.461 147.622L755.908 148.572L751.258 181.608L759.196 181.052L759.981 172.819L761.878 172.686L761.558 180.886L769.496 180.33L769.461 147.622ZM762.431 157.811L762.125 165.659L760.693 165.76L761.463 157.879L761.845 153.335L762.775 153.27L762.431 157.811ZM772.093 147.438L778.56 146.984L777.506 168.593L777.036 174.661L777.965 174.596L778.435 168.528L780.263 146.865L791.608 146.07L790.516 167.681L790.046 173.75L790.975 173.685L791.445 167.616L793.351 145.948L799.895 145.489L796.793 178.417L784.829 179.256L785.622 157.821L786.084 151.636L785.155 151.701L784.693 157.886L782.622 179.41L770.657 180.249L772.093 147.438ZM816.041 144.358L802.489 145.308L797.839 178.344L805.777 177.788L806.562 169.555L808.459 169.422L808.139 177.622L816.076 177.066L816.041 144.358ZM809.051 154.544L808.745 162.393L807.312 162.493L808.083 154.612L808.465 150.068L809.394 150.003L809.051 154.544ZM820.107 144.073L827.464 143.557L825.694 169.383L831.657 168.965L831.178 176.008L817.819 176.944L820.107 144.073ZM842.217 142.524L834.86 143.039L832.572 175.91L845.931 174.974L846.41 167.931L840.447 168.349L842.217 142.524Z" fill="black"/>
<path fill-rule="evenodd" clip-rule="evenodd" d="M-50.99 205.116L-58.4244 205.637L-60.7125 238.508L-53.2781 237.987L-52.737 230.161L-51.9938 228.551L-49.9869 237.756L-42.204 237.211L-46.692 219.807L-39.761 204.329L-47.8536 204.896L-54.0225 221.255L-54.9518 221.32L-51.4461 211.378L-50.99 205.116ZM-44.5386 241.658L-40.4343 241.37L-39.9647 267.506L-40.2836 272.396L-39.7415 272.358L-37.5662 241.208L-35.3978 241.056L-37.686 273.927L-41.7904 274.215L-42.2599 248.079L-41.941 243.189L-42.4831 243.227L-44.6584 274.377L-46.8268 274.529L-44.5386 241.658ZM-57.4349 270.288L-55.4548 242.462L-53.0928 242.296L-55.0927 270.396C-55.2307 272.314 -54.7063 273.134 -53.5834 273.055C-52.4605 272.977 -51.862 272.078 -51.724 270.16L-49.7628 242.063L-47.4009 241.898L-49.3926 270.114C-49.5958 273.321 -50.7541 275.116 -53.542 275.311C-56.5623 275.523 -57.6165 273.805 -57.3935 270.324L-57.4349 270.288ZM-28.4695 240.532L-32.3029 240.801L-34.591 273.671L-30.3317 273.373C-28.1634 273.221 -27.1417 272.254 -26.5499 270.148C-25.8277 267.683 -24.4321 247.064 -24.6466 244.002C-24.6982 243.266 -24.7749 242.726 -25.0065 242.197C-25.4806 240.985 -26.6497 240.404 -28.4695 240.532ZM-28.8833 269.611C-29.1279 270.563 -29.6014 271.024 -30.4532 271.084L-30.4919 271.087L-32.1182 271.201L-30.1292 242.946L-28.3481 242.821C-27.806 242.783 -27.5241 242.919 -27.3033 243.293C-27.1681 243.556 -27.1104 243.825 -27.0805 244.251C-26.885 247.041 -28.4777 268.181 -28.8833 269.611ZM-19.3816 264.155L-18.6059 252.458L-11.1716 251.937L-12.0628 265.317C-12.1695 266.571 -12.1036 266.955 -11.6389 266.923C-11.2517 266.896 -11.0357 266.647 -10.982 265.748L-9.18601 239.181L-1.75164 238.66L-3.51092 264.64C-3.81818 269.14 -6.64288 272.141 -11.4442 272.478C-17.7557 272.92 -19.746 270.061 -19.3456 264.114L-19.3816 264.155ZM0.303275 238.555L-1.37032 262.426C-1.75985 268.528 0.406995 271.686 6.71846 271.244C12.0619 270.87 14.2895 267.676 14.6165 262.902L16.3724 237.429L8.93798 237.95L7.06998 264.599C7.00813 265.383 6.86954 265.626 6.48233 265.653C6.09513 265.68 5.77721 265.586 5.86964 264.684L7.73765 238.034L0.303275 238.555ZM18.1508 237.265L24.6171 236.812L23.5632 258.42L23.0935 264.489L24.0228 264.424L24.4925 258.355L26.3209 236.693L37.666 235.898L36.5733 257.509L36.1036 263.577L37.0329 263.512L37.5026 257.443L39.4084 235.776L45.9522 235.317L42.851 268.245L30.8863 269.083L31.6801 247.649L32.1416 241.464L31.2123 241.529L30.7508 247.714L28.6792 269.238L16.7145 270.076L18.1508 237.265ZM60.7049 234.283L47.8496 235.184L45.5615 268.055L58.4555 267.151L58.9348 260.108L53.4364 260.494L53.881 254.621L58.8372 254.274L59.3552 247.228L54.3602 247.578L54.7273 241.711L60.2257 241.326L60.7049 234.283ZM62.7958 234.137L70.1528 233.621L68.3826 259.446L74.3456 259.028L73.8663 266.071L60.5077 267.007L62.7958 234.137ZM-38.3672 204.231L-30.6618 203.691C-27.448 203.466 -25.2648 204.637 -23.8764 206.682C-23.3105 207.538 -22.8915 208.521 -22.8127 209.645C-22.6389 212.125 -22.7987 215.952 -23.8137 218.126C-24.4931 219.537 -25.9102 220.415 -27.7416 220.932L-27.6792 221.824L-24.5686 222.346L-24.3152 235.957L-31.3237 236.448L-31.6098 224.591L-32.3842 224.646L-33.221 236.581L-40.6554 237.102L-38.3672 204.231ZM-31.7752 217.788C-31.2331 217.75 -30.9342 217.574 -30.6957 217.09C-30.46 216.567 -30.012 210.188 -30.0419 209.762C-30.0555 209.568 -30.1024 209.454 -30.2294 209.308C-30.4447 209.011 -30.7293 208.836 -31.0004 208.855L-31.2714 208.874L-31.8914 217.796L-31.7752 217.788ZM-4.64108 201.868L-18.1933 202.818L-22.8434 235.854L-14.9056 235.298L-14.1207 227.065L-12.2233 226.932L-12.5437 235.132L-4.60595 234.576L-4.64108 201.868ZM-11.6704 212.057L-11.9764 219.906L-13.4091 220.006L-12.6384 212.125L-12.2564 207.581L-11.3271 207.516L-11.6704 212.057ZM-2.00862 201.684L4.45773 201.231L3.40378 222.839L2.9341 228.907L3.86339 228.842L4.33308 222.774L6.16145 201.111L17.5066 200.316L16.4139 221.927L15.9442 227.996L16.8735 227.931L17.3432 221.862L19.249 200.194L25.7928 199.735L22.6916 232.663L10.7269 233.502L11.5207 212.067L11.9822 205.882L11.0529 205.948L10.5914 212.133L8.51981 233.656L-3.44487 234.495L-2.00862 201.684ZM41.9394 198.604L28.3871 199.554L23.737 232.59L31.6748 232.034L32.4598 223.801L34.3571 223.668L34.0367 231.868L41.9745 231.312L41.9394 198.604ZM34.9488 208.79L34.6427 216.639L33.2101 216.739L33.9808 208.858L34.3628 204.314L35.2921 204.249L34.9488 208.79ZM46.0055 198.319L53.3624 197.804L51.5922 223.629L57.5552 223.211L57.076 230.254L43.7173 231.19L46.0055 198.319ZM68.1152 196.77L60.7583 197.285L58.4702 230.156L71.8288 229.22L72.308 222.177L66.345 222.595L68.1152 196.77Z" fill="black"/>
<path fill-rule="evenodd" clip-rule="evenodd" d="M1497.21 96.6276L1489.78 97.1486L1487.49 130.019L1494.93 129.498L1495.47 121.672L1496.21 120.063L1498.22 129.268L1506 128.722L1501.51 111.319L1508.44 95.8408L1500.35 96.4079L1494.18 112.767L1493.25 112.832L1496.76 102.89L1497.21 96.6276ZM1503.66 133.17L1507.77 132.882L1508.24 159.018L1507.92 163.908L1508.46 163.87L1510.64 132.72L1512.81 132.568L1510.52 165.439L1506.41 165.727L1505.94 139.591L1506.26 134.701L1505.72 134.739L1503.55 165.889L1501.38 166.04L1503.66 133.17ZM1490.77 161.799L1492.75 133.974L1495.11 133.808L1493.11 161.908C1492.97 163.826 1493.5 164.646 1494.62 164.567C1495.74 164.488 1496.34 163.59 1496.48 161.672L1498.44 133.575L1500.8 133.409L1498.81 161.625C1498.61 164.833 1497.45 166.627 1494.66 166.823C1491.64 167.034 1490.59 165.317 1490.81 161.836L1490.77 161.799ZM1519.73 132.044L1515.9 132.312L1513.61 165.183L1517.87 164.885C1520.04 164.733 1521.06 163.765 1521.65 161.66C1522.38 159.195 1523.77 138.575 1523.56 135.514C1523.51 134.778 1523.43 134.238 1523.2 133.709C1522.72 132.496 1521.55 131.916 1519.73 132.044ZM1519.32 161.123C1519.08 162.074 1518.6 162.536 1517.75 162.596L1517.71 162.598L1516.09 162.712L1518.07 134.458L1519.86 134.333C1520.4 134.295 1520.68 134.431 1520.9 134.805C1521.04 135.068 1521.09 135.336 1521.12 135.763C1521.32 138.553 1519.73 159.692 1519.32 161.123ZM1528.82 155.667L1529.6 143.969L1537.03 143.448L1536.14 156.829C1536.03 158.082 1536.1 158.467 1536.56 158.435C1536.95 158.407 1537.17 158.159 1537.22 157.259L1539.02 130.692L1546.45 130.172L1544.69 156.152C1544.39 160.651 1541.56 163.653 1536.76 163.989C1530.45 164.432 1528.46 161.573 1528.86 155.626L1528.82 155.667ZM1548.51 130.067L1546.83 153.938C1546.44 160.04 1548.61 163.198 1554.92 162.756C1560.27 162.381 1562.49 159.188 1562.82 154.414L1564.58 128.941L1557.14 129.461L1555.27 156.111C1555.21 156.894 1555.07 157.138 1554.69 157.165C1554.3 157.192 1553.98 157.097 1554.07 156.195L1555.94 129.546L1548.51 130.067ZM1566.35 128.777L1572.82 128.324L1571.77 149.932L1571.3 156.001L1572.23 155.936L1572.7 149.867L1574.52 128.204L1585.87 127.409L1584.78 149.02L1584.31 155.089L1585.24 155.024L1585.71 148.955L1587.61 127.287L1594.16 126.829L1591.05 159.756L1579.09 160.595L1579.88 139.161L1580.35 132.976L1579.42 133.041L1578.95 139.226L1576.88 160.75L1564.92 161.588L1566.35 128.777ZM1608.91 125.795L1596.05 126.696L1593.77 159.567L1606.66 158.663L1607.14 151.62L1601.64 152.005L1602.08 146.133L1607.04 145.786L1607.56 138.74L1602.56 139.09L1602.93 133.223L1608.43 132.838L1608.91 125.795ZM1611 125.648L1618.36 125.133L1616.59 150.958L1622.55 150.54L1622.07 157.583L1608.71 158.519L1611 125.648ZM1509.84 95.7431L1517.54 95.2032C1520.76 94.978 1522.94 96.149 1524.33 98.1934C1524.89 99.0494 1525.31 100.033 1525.39 101.156C1525.56 103.636 1525.4 107.464 1524.39 109.638C1523.71 111.048 1522.29 111.926 1520.46 112.444L1520.52 113.335L1523.63 113.857L1523.89 127.469L1516.88 127.96L1516.59 116.103L1515.82 116.157L1514.98 128.093L1507.55 128.614L1509.84 95.7431ZM1516.43 109.3C1516.97 109.262 1517.27 109.085 1517.51 108.601C1517.74 108.078 1518.19 101.7 1518.16 101.273C1518.15 101.08 1518.1 100.966 1517.97 100.819C1517.76 100.523 1517.47 100.348 1517.2 100.367L1516.93 100.386L1516.31 109.308L1516.43 109.3ZM1543.56 93.3798L1530.01 94.3295L1525.36 127.366L1533.3 126.81L1534.08 118.577L1535.98 118.444L1535.66 126.644L1543.6 126.088L1543.56 93.3798ZM1536.53 103.569L1536.23 111.417L1534.79 111.518L1535.57 103.637L1535.95 99.0926L1536.88 99.0275L1536.53 103.569ZM1546.19 93.1953L1552.66 92.7422L1551.61 114.35L1551.14 120.419L1552.07 120.354L1552.54 114.285L1554.37 92.6228L1565.71 91.8278L1564.62 113.439L1564.15 119.508L1565.08 119.442L1565.55 113.374L1567.45 91.7057L1574 91.2472L1570.9 124.175L1558.93 125.013L1559.72 103.579L1560.19 97.3941L1559.26 97.4592L1558.79 103.644L1556.72 125.168L1544.76 126.006L1546.19 93.1953ZM1590.14 90.1158L1576.59 91.0654L1571.94 124.102L1579.88 123.545L1580.66 115.313L1582.56 115.18L1582.24 123.38L1590.18 122.824L1590.14 90.1158ZM1583.15 100.302L1582.85 108.151L1581.41 108.251L1582.18 100.37L1582.57 95.8258L1583.5 95.7607L1583.15 100.302ZM1594.21 89.8308L1601.57 89.3153L1599.8 115.14L1605.76 114.723L1605.28 121.766L1591.92 122.702L1594.21 89.8308ZM1616.32 88.2815L1608.96 88.7971L1606.67 121.668L1620.03 120.732L1620.51 113.689L1614.55 114.107L1616.32 88.2815Z" fill="black"/>
<path fill-rule="evenodd" clip-rule="evenodd" d="M1110.16 123.749L1102.73 124.27L1100.44 157.14L1107.87 156.619L1108.42 148.793L1109.16 147.184L1111.17 156.389L1118.95 155.843L1114.46 138.44L1121.39 122.962L1113.3 123.529L1107.13 139.888L1106.2 139.953L1109.71 130.011L1110.16 123.749ZM1116.61 160.291L1120.72 160.003L1121.19 186.139L1120.87 191.029L1121.41 190.991L1123.59 159.841L1125.75 159.689L1123.47 192.56L1119.36 192.848L1118.89 166.712L1119.21 161.822L1118.67 161.86L1116.49 193.01L1114.33 193.162L1116.61 160.291ZM1103.72 188.921L1105.7 161.095L1108.06 160.929L1106.06 189.029C1105.92 190.947 1106.45 191.767 1107.57 191.688C1108.69 191.609 1109.29 190.711 1109.43 188.793L1111.39 160.696L1113.75 160.53L1111.76 188.746C1111.56 191.954 1110.4 193.748 1107.61 193.944C1104.59 194.155 1103.54 192.438 1103.76 188.957L1103.72 188.921ZM1132.68 159.165L1128.85 159.433L1126.56 192.304L1130.82 192.006C1132.99 191.854 1134.01 190.887 1134.6 188.781C1135.33 186.316 1136.72 165.697 1136.51 162.635C1136.45 161.899 1136.38 161.359 1136.15 160.83C1135.67 159.617 1134.5 159.037 1132.68 159.165ZM1132.27 188.244C1132.02 189.196 1131.55 189.657 1130.7 189.717L1130.66 189.719L1129.03 189.833L1131.02 161.579L1132.8 161.454C1133.35 161.416 1133.63 161.552 1133.85 161.926C1133.98 162.189 1134.04 162.457 1134.07 162.884C1134.27 165.674 1132.68 186.813 1132.27 188.244ZM1141.77 182.788L1142.55 171.091L1149.98 170.57L1149.09 183.95C1148.98 185.203 1149.05 185.588 1149.51 185.556C1149.9 185.529 1150.12 185.28 1150.17 184.38L1151.97 157.814L1159.4 157.293L1157.64 183.273C1157.33 187.772 1154.51 190.774 1149.71 191.111C1143.4 191.553 1141.41 188.694 1141.81 182.747L1141.77 182.788ZM1161.46 157.188L1159.78 181.059C1159.39 187.161 1161.56 190.319 1167.87 189.877C1173.21 189.502 1175.44 186.309 1175.77 181.535L1177.53 156.062L1170.09 156.583L1168.22 183.232C1168.16 184.015 1168.02 184.259 1167.64 184.286C1167.25 184.313 1166.93 184.219 1167.02 183.316L1168.89 156.667L1161.46 157.188ZM1179.3 155.898L1185.77 155.445L1184.72 177.053L1184.25 183.122L1185.18 183.057L1185.65 176.988L1187.47 155.325L1198.82 154.53L1197.73 176.141L1197.26 182.21L1198.19 182.145L1198.66 176.076L1200.56 154.408L1207.11 153.95L1204 186.878L1192.04 187.716L1192.83 166.282L1193.29 160.097L1192.37 160.162L1191.9 166.347L1189.83 187.871L1177.87 188.709L1179.3 155.898ZM1221.86 152.916L1209 153.817L1206.71 186.688L1219.61 185.784L1220.09 178.741L1214.59 179.126L1215.03 173.254L1219.99 172.907L1220.51 165.861L1215.51 166.211L1215.88 160.344L1221.38 159.959L1221.86 152.916ZM1223.95 152.77L1231.31 152.254L1229.54 178.079L1235.5 177.661L1235.02 184.704L1221.66 185.64L1223.95 152.77ZM1122.79 122.864L1130.49 122.324C1133.7 122.099 1135.89 123.27 1137.28 125.315C1137.84 126.171 1138.26 127.154 1138.34 128.277C1138.51 130.757 1138.35 134.585 1137.34 136.759C1136.66 138.169 1135.24 139.047 1133.41 139.565L1133.47 140.456L1136.58 140.978L1136.84 154.59L1129.83 155.081L1129.54 143.224L1128.77 143.278L1127.93 155.214L1120.5 155.735L1122.79 122.864ZM1129.38 136.421C1129.92 136.383 1130.22 136.206 1130.46 135.722C1130.69 135.2 1131.14 128.821 1131.11 128.395C1131.1 128.201 1131.05 128.087 1130.92 127.94C1130.71 127.644 1130.42 127.469 1130.15 127.488L1129.88 127.507L1129.26 136.429L1129.38 136.421ZM1156.51 120.501L1142.96 121.451L1138.31 154.487L1146.25 153.931L1147.03 145.698L1148.93 145.565L1148.61 153.765L1156.55 153.209L1156.51 120.501ZM1149.48 130.69L1149.18 138.538L1147.74 138.639L1148.51 130.758L1148.9 126.214L1149.83 126.149L1149.48 130.69ZM1159.14 120.316L1165.61 119.863L1164.56 141.472L1164.09 147.54L1165.02 147.475L1165.49 141.406L1167.31 119.744L1178.66 118.949L1177.57 140.56L1177.1 146.629L1178.03 146.564L1178.5 140.495L1180.4 118.827L1186.95 118.368L1183.84 151.296L1171.88 152.134L1172.67 130.7L1173.14 124.515L1172.21 124.58L1171.74 130.765L1169.67 152.289L1157.71 153.128L1159.14 120.316ZM1203.09 117.237L1189.54 118.187L1184.89 151.223L1192.83 150.667L1193.61 142.434L1195.51 142.301L1195.19 150.501L1203.13 149.945L1203.09 117.237ZM1196.1 127.423L1195.8 135.272L1194.36 135.372L1195.13 127.491L1195.52 122.947L1196.44 122.882L1196.1 127.423ZM1207.16 116.952L1214.52 116.436L1212.75 142.261L1218.71 141.844L1218.23 148.887L1204.87 149.823L1207.16 116.952ZM1229.27 115.403L1221.91 115.918L1219.62 148.789L1232.98 147.853L1233.46 140.81L1227.5 141.228L1229.27 115.403Z" fill="black"/>
<path fill-rule="evenodd" clip-rule="evenodd" d="M336.061 177.991L328.627 178.512L326.339 211.383L333.773 210.862L334.314 203.036L335.057 201.426L337.064 210.631L344.847 210.086L340.359 192.682L347.29 177.204L339.197 177.771L333.029 194.13L332.099 194.195L335.605 184.253L336.061 177.991ZM342.512 214.533L346.617 214.245L347.086 240.381L346.767 245.271L347.31 245.233L349.485 214.083L351.653 213.931L349.365 246.802L345.261 247.09L344.791 220.954L345.11 216.064L344.568 216.102L342.393 247.252L340.224 247.404L342.512 214.533ZM329.616 243.163L331.596 215.337L333.958 215.171L331.958 243.271C331.82 245.189 332.345 246.009 333.468 245.93C334.591 245.852 335.189 244.953 335.327 243.035L337.288 214.938L339.65 214.773L337.658 242.989C337.455 246.196 336.297 247.991 333.509 248.186C330.489 248.398 329.435 246.68 329.658 243.199L329.616 243.163ZM358.581 213.407L354.748 213.676L352.46 246.546L356.719 246.248C358.888 246.096 359.909 245.129 360.501 243.023C361.223 240.558 362.619 219.939 362.404 216.877C362.353 216.141 362.276 215.601 362.045 215.072C361.57 213.86 360.401 213.279 358.581 213.407ZM358.168 242.486C357.923 243.438 357.45 243.899 356.598 243.959L356.559 243.962L354.933 244.076L356.922 215.821L358.703 215.696C359.245 215.658 359.527 215.794 359.748 216.168C359.883 216.431 359.941 216.7 359.97 217.126C360.166 219.916 358.573 241.056 358.168 242.486ZM367.669 237.03L368.445 225.333L375.879 224.812L374.988 238.192C374.882 239.446 374.947 239.83 375.412 239.798C375.799 239.771 376.015 239.522 376.069 238.623L377.865 212.056L385.299 211.535L383.54 237.515C383.233 242.015 380.408 245.016 375.607 245.353C369.295 245.795 367.305 242.936 367.705 236.989L367.669 237.03ZM387.354 211.43L385.681 235.301C385.291 241.403 387.458 244.561 393.769 244.119C399.113 243.745 401.341 240.551 401.668 235.777L403.423 210.304L395.989 210.825L394.121 237.474C394.059 238.258 393.921 238.501 393.533 238.528C393.146 238.555 392.828 238.461 392.921 237.559L394.789 210.909L387.354 211.43ZM405.202 210.14L411.668 209.687L410.614 231.295L410.145 237.364L411.074 237.299L411.544 231.23L413.372 209.568L424.717 208.773L423.624 230.384L423.155 236.452L424.084 236.387L424.554 230.318L426.459 208.651L433.003 208.192L429.902 241.12L417.937 241.958L418.731 220.524L419.193 214.339L418.263 214.404L417.802 220.589L415.73 242.113L403.766 242.951L405.202 210.14ZM447.756 207.158L434.901 208.059L432.613 240.93L445.507 240.026L445.986 232.983L440.487 233.369L440.932 227.496L445.888 227.149L446.406 220.103L441.411 220.453L441.778 214.586L447.277 214.201L447.756 207.158ZM449.847 207.012L457.204 206.496L455.434 232.321L461.397 231.903L460.917 238.946L447.559 239.882L449.847 207.012ZM348.684 177.106L356.389 176.566C359.603 176.341 361.786 177.512 363.175 179.557C363.74 180.413 364.16 181.396 364.238 182.52C364.412 185 364.252 188.827 363.237 191.001C362.558 192.412 361.141 193.29 359.309 193.807L359.372 194.699L362.482 195.221L362.736 208.832L355.727 209.323L355.441 197.466L354.667 197.521L353.83 209.456L346.396 209.977L348.684 177.106ZM355.276 190.663C355.818 190.625 356.117 190.449 356.355 189.965C356.591 189.442 357.039 183.063 357.009 182.637C356.996 182.443 356.949 182.329 356.822 182.183C356.606 181.886 356.322 181.711 356.051 181.73L355.78 181.749L355.16 190.671L355.276 190.663ZM382.41 174.743L368.858 175.693L364.208 208.729L372.145 208.173L372.93 199.94L374.828 199.807L374.507 208.007L382.445 207.451L382.41 174.743ZM375.381 184.932L375.075 192.781L373.642 192.881L374.413 185L374.795 180.456L375.724 180.391L375.381 184.932ZM385.042 174.559L391.509 174.106L390.455 195.714L389.985 201.782L390.914 201.717L391.384 195.649L393.212 173.986L404.558 173.191L403.465 194.802L402.995 200.871L403.925 200.806L404.394 194.737L406.3 173.069L412.844 172.61L409.743 205.538L397.778 206.377L398.572 184.942L399.033 178.757L398.104 178.823L397.642 185.008L395.571 206.531L383.606 207.37L385.042 174.559ZM428.99 171.479L415.438 172.429L410.788 205.465L418.726 204.909L419.511 196.676L421.408 196.543L421.088 204.743L429.026 204.187L428.99 171.479ZM422 181.665L421.694 189.514L420.261 189.614L421.032 181.733L421.414 177.189L422.343 177.124L422 181.665ZM433.056 171.194L440.413 170.679L438.643 196.504L444.606 196.086L444.127 203.129L430.768 204.065L433.056 171.194ZM455.166 169.645L447.809 170.16L445.521 203.031L458.88 202.095L459.359 195.052L453.396 195.47L455.166 169.645Z" fill="black"/>
<path fill-rule="evenodd" clip-rule="evenodd" d="M916.637 137.311L909.203 137.832L906.915 170.703L914.349 170.182L914.89 162.356L915.633 160.746L917.64 169.951L925.423 169.406L920.935 152.002L927.866 136.524L919.774 137.091L913.605 153.451L912.675 153.516L916.181 143.574L916.637 137.311ZM923.089 173.853L927.193 173.566L927.662 199.701L927.344 204.591L927.886 204.553L930.061 173.404L932.229 173.252L929.941 206.122L925.837 206.41L925.367 180.275L925.686 175.385L925.144 175.423L922.969 206.572L920.8 206.724L923.089 173.853ZM910.192 202.483L912.172 174.657L914.534 174.492L912.535 202.592C912.397 204.509 912.921 205.329 914.044 205.251C915.167 205.172 915.765 204.273 915.903 202.355L917.864 174.258L920.226 174.093L918.235 202.309C918.031 205.516 916.873 207.311 914.085 207.506C911.065 207.718 910.011 206 910.234 202.519L910.192 202.483ZM939.158 172.727L935.324 172.996L933.036 205.867L937.295 205.568C939.464 205.416 940.486 204.449 941.077 202.344C941.8 199.879 943.195 179.259 942.981 176.198C942.929 175.461 942.852 174.922 942.621 174.393C942.147 173.18 940.978 172.6 939.158 172.727ZM938.744 201.806C938.499 202.758 938.026 203.22 937.174 203.279L937.135 203.282L935.509 203.396L937.498 175.141L939.279 175.016C939.821 174.978 940.103 175.114 940.324 175.488C940.459 175.751 940.517 176.02 940.547 176.446C940.742 179.236 939.15 200.376 938.744 201.806ZM948.246 196.351L949.021 184.653L956.456 184.132L955.564 197.512C955.458 198.766 955.524 199.151 955.988 199.118C956.375 199.091 956.591 198.842 956.645 197.943L958.441 171.376L965.876 170.855L964.116 196.835C963.809 201.335 960.984 204.337 956.183 204.673C949.871 205.115 947.881 202.256 948.282 196.309L948.246 196.351ZM967.93 170.75L966.257 194.621C965.867 200.723 968.034 203.882 974.346 203.439C979.689 203.065 981.917 199.871 982.244 195.098L984 169.624L976.565 170.145L974.697 196.795C974.635 197.578 974.497 197.821 974.11 197.848C973.722 197.876 973.404 197.781 973.497 196.879L975.365 170.229L967.93 170.75ZM985.778 169.46L992.244 169.007L991.19 190.616L990.721 196.684L991.65 196.619L992.12 190.55L993.948 168.888L1005.29 168.093L1004.2 189.704L1003.73 195.773L1004.66 195.708L1005.13 189.639L1007.04 167.971L1013.58 167.512L1010.48 200.44L998.513 201.278L999.307 179.844L999.769 173.659L998.84 173.724L998.378 179.909L996.306 201.433L984.342 202.272L985.778 169.46ZM1028.33 166.479L1015.48 167.379L1013.19 200.25L1026.08 199.347L1026.56 192.304L1021.06 192.689L1021.51 186.817L1026.46 186.469L1026.98 179.424L1021.99 179.774L1022.35 173.907L1027.85 173.522L1028.33 166.479ZM1030.42 166.332L1037.78 165.817L1036.01 191.642L1041.97 191.224L1041.49 198.267L1028.13 199.203L1030.42 166.332ZM929.26 136.427L936.965 135.887C940.179 135.662 942.362 136.833 943.751 138.877C944.317 139.733 944.736 140.716 944.814 141.84C944.988 144.32 944.828 148.147 943.813 150.321C943.134 151.732 941.717 152.61 939.886 153.128L939.948 154.019L943.059 154.541L943.312 168.152L936.304 168.644L936.017 156.787L935.243 156.841L934.406 168.777L926.972 169.297L929.26 136.427ZM935.852 149.984C936.394 149.946 936.693 149.769 936.931 149.285C937.167 148.762 937.615 142.383 937.585 141.957C937.572 141.763 937.525 141.65 937.398 141.503C937.182 141.206 936.898 141.032 936.627 141.051L936.356 141.07L935.736 149.992L935.852 149.984ZM962.986 134.063L949.434 135.013L944.784 168.049L952.722 167.493L953.507 159.26L955.404 159.128L955.084 167.328L963.021 166.771L962.986 134.063ZM955.957 144.252L955.651 152.101L954.218 152.201L954.989 144.32L955.371 139.776L956.3 139.711L955.957 144.252ZM965.619 133.879L972.085 133.426L971.031 155.034L970.561 161.103L971.491 161.038L971.96 154.969L973.789 133.306L985.134 132.511L984.041 154.122L983.571 160.191L984.501 160.126L984.97 154.057L986.876 132.389L993.42 131.931L990.319 164.859L978.354 165.697L979.148 144.263L979.609 138.078L978.68 138.143L978.219 144.328L976.147 165.852L964.182 166.69L965.619 133.879ZM1009.57 130.799L996.014 131.749L991.364 164.785L999.302 164.229L1000.09 155.996L1001.98 155.863L1001.66 164.064L1009.6 163.507L1009.57 130.799ZM1002.58 140.986L1002.27 148.834L1000.84 148.934L1001.61 141.053L1001.99 136.509L1002.92 136.444L1002.58 140.986ZM1013.63 130.514L1020.99 129.999L1019.22 155.824L1025.18 155.406L1024.7 162.449L1011.34 163.385L1013.63 130.514ZM1035.74 128.965L1028.39 129.481L1026.1 162.351L1039.46 161.415L1039.94 154.372L1033.97 154.79L1035.74 128.965Z" fill="black"/>
<path fill-rule="evenodd" clip-rule="evenodd" d="M142.535 191.553L135.101 192.074L132.813 224.945L140.247 224.424L140.788 216.598L141.532 214.988L143.539 224.194L151.321 223.648L146.833 206.245L153.764 190.767L145.672 191.334L139.503 207.693L138.574 207.758L142.079 197.816L142.535 191.553ZM148.987 228.096L153.091 227.808L153.561 253.943L153.242 258.833L153.784 258.795L155.959 227.646L158.128 227.494L155.839 260.365L151.735 260.652L151.266 234.517L151.584 229.627L151.042 229.665L148.867 260.814L146.699 260.966L148.987 228.096ZM136.09 256.725L138.071 228.899L140.433 228.734L138.433 256.834C138.295 258.752 138.819 259.571 139.942 259.493C141.065 259.414 141.663 258.515 141.801 256.598L143.763 228.501L146.125 228.335L144.133 256.551C143.93 259.759 142.771 261.553 139.983 261.748C136.963 261.96 135.909 260.243 136.132 256.761L136.09 256.725ZM165.056 226.97L161.222 227.238L158.934 260.109L163.194 259.81C165.362 259.658 166.384 258.691 166.976 256.586C167.698 254.121 169.093 233.501 168.879 230.44C168.827 229.704 168.75 229.164 168.519 228.635C168.045 227.422 166.876 226.842 165.056 226.97ZM164.642 256.048C164.398 257 163.924 257.462 163.072 257.521L163.033 257.524L161.407 257.638L163.396 229.383L165.177 229.259C165.719 229.221 166.001 229.357 166.222 229.73C166.357 229.994 166.415 230.262 166.445 230.688C166.64 233.478 165.048 254.618 164.642 256.048ZM174.144 250.593L174.919 238.895L182.354 238.374L181.463 251.755C181.356 253.008 181.422 253.393 181.886 253.36C182.274 253.333 182.49 253.084 182.543 252.185L184.339 225.618L191.774 225.097L190.014 251.077C189.707 255.577 186.883 258.579 182.081 258.915C175.77 259.358 173.779 256.499 174.18 250.551L174.144 250.593ZM193.829 224.992L192.155 248.864C191.766 254.966 193.932 258.124 200.244 257.682C205.587 257.307 207.815 254.114 208.142 249.34L209.898 223.866L202.463 224.387L200.595 251.037C200.534 251.82 200.395 252.063 200.008 252.091C199.621 252.118 199.303 252.023 199.395 251.121L201.263 224.471L193.829 224.992ZM211.676 223.703L218.143 223.25L217.089 244.858L216.619 250.927L217.548 250.861L218.018 244.793L219.846 223.13L231.191 222.335L230.099 243.946L229.629 250.015L230.558 249.95L231.028 243.881L232.934 222.213L239.478 221.755L236.376 254.682L224.412 255.521L225.205 234.086L225.667 227.901L224.738 227.967L224.276 234.152L222.205 255.675L210.24 256.514L211.676 223.703ZM254.23 220.721L241.375 221.622L239.087 254.492L251.981 253.589L252.46 246.546L246.962 246.931L247.406 241.059L252.363 240.712L252.881 233.666L247.886 234.016L248.253 228.149L253.751 227.764L254.23 220.721ZM256.321 220.574L263.678 220.059L261.908 245.884L267.871 245.466L267.392 252.509L254.033 253.445L256.321 220.574ZM155.158 190.669L162.864 190.129C166.077 189.904 168.261 191.075 169.649 193.119C170.215 193.975 170.634 194.958 170.713 196.082C170.886 198.562 170.727 202.39 169.712 204.563C169.032 205.974 167.615 206.852 165.784 207.37L165.846 208.261L168.957 208.783L169.21 222.395L162.202 222.886L161.916 211.029L161.141 211.083L160.304 223.019L152.87 223.54L155.158 190.669ZM161.75 204.226C162.292 204.188 162.591 204.011 162.83 203.527C163.065 203.004 163.513 196.626 163.483 196.199C163.47 196.005 163.423 195.892 163.296 195.745C163.081 195.449 162.796 195.274 162.525 195.293L162.254 195.312L161.634 204.234L161.75 204.226ZM188.884 188.306L175.332 189.255L170.682 222.292L178.62 221.735L179.405 213.503L181.302 213.37L180.982 221.57L188.919 221.014L188.884 188.306ZM181.855 198.494L181.549 206.343L180.116 206.443L180.887 198.562L181.269 194.018L182.198 193.953L181.855 198.494ZM191.517 188.121L197.983 187.668L196.929 209.276L196.459 215.345L197.389 215.28L197.858 209.211L199.687 187.549L211.032 186.754L209.939 208.365L209.47 214.433L210.399 214.368L210.869 208.299L212.774 186.632L219.318 186.173L216.217 219.101L204.252 219.939L205.046 198.505L205.508 192.32L204.578 192.385L204.117 198.57L202.045 220.094L190.081 220.932L191.517 188.121ZM235.465 185.042L221.913 185.991L217.262 219.027L225.2 218.471L225.985 210.239L227.882 210.106L227.562 218.306L235.5 217.75L235.465 185.042ZM228.474 195.228L228.168 203.076L226.735 203.177L227.506 195.296L227.888 190.752L228.817 190.686L228.474 195.228ZM239.531 184.757L246.888 184.241L245.118 210.066L251.081 209.648L250.601 216.691L237.243 217.627L239.531 184.757ZM261.641 183.207L254.284 183.723L251.996 216.594L265.354 215.658L265.833 208.615L259.87 209.032L261.641 183.207Z" fill="black"/>
<path fill-rule="evenodd" clip-rule="evenodd" d="M1690.74 83.0651L1683.3 83.5861L1681.02 116.457L1688.45 115.936L1688.99 108.11L1689.74 106.5L1691.74 115.705L1699.53 115.16L1695.04 97.7562L1701.97 82.2783L1693.88 82.8454L1687.71 99.2045L1686.78 99.2696L1690.28 89.3276L1690.74 83.0651ZM1697.19 119.607L1701.29 119.32L1701.76 145.455L1701.45 150.345L1701.99 150.307L1704.16 119.158L1706.33 119.006L1704.04 151.876L1699.94 152.164L1699.47 126.029L1699.79 121.139L1699.25 121.177L1697.07 152.326L1694.9 152.478L1697.19 119.607ZM1684.29 148.237L1686.27 120.411L1688.64 120.246L1686.64 148.345C1686.5 150.263 1687.02 151.083 1688.15 151.004C1689.27 150.926 1689.87 150.027 1690.01 148.109L1691.97 120.012L1694.33 119.847L1692.34 148.063C1692.13 151.27 1690.97 153.065 1688.19 153.26C1685.17 153.472 1684.11 151.754 1684.34 148.273L1684.29 148.237ZM1713.26 118.481L1709.43 118.75L1707.14 151.621L1711.4 151.322C1713.57 151.17 1714.59 150.203 1715.18 148.098C1715.9 145.633 1717.3 125.013 1717.08 121.952C1717.03 121.215 1716.95 120.676 1716.72 120.147C1716.25 118.934 1715.08 118.354 1713.26 118.481ZM1712.85 147.56C1712.6 148.512 1712.13 148.973 1711.28 149.033L1711.24 149.036L1709.61 149.15L1711.6 120.895L1713.38 120.77C1713.92 120.732 1714.2 120.868 1714.43 121.242C1714.56 121.505 1714.62 121.774 1714.65 122.2C1714.84 124.99 1713.25 146.13 1712.85 147.56ZM1722.35 142.105L1723.12 130.407L1730.56 129.886L1729.67 143.266C1729.56 144.52 1729.63 144.905 1730.09 144.872C1730.48 144.845 1730.69 144.596 1730.75 143.697L1732.54 117.13L1739.98 116.609L1738.22 142.589C1737.91 147.089 1735.09 150.091 1730.28 150.427C1723.97 150.869 1721.98 148.01 1722.38 142.063L1722.35 142.105ZM1742.03 116.504L1740.36 140.375C1739.97 146.477 1742.14 149.636 1748.45 149.193C1753.79 148.819 1756.02 145.625 1756.35 140.852L1758.1 115.378L1750.67 115.899L1748.8 142.549C1748.74 143.332 1748.6 143.575 1748.21 143.602C1747.82 143.629 1747.51 143.535 1747.6 142.633L1749.47 115.983L1742.03 116.504ZM1759.88 115.214L1766.35 114.761L1765.29 136.369L1764.82 142.438L1765.75 142.373L1766.22 136.304L1768.05 114.642L1779.4 113.847L1778.3 135.458L1777.83 141.527L1778.76 141.461L1779.23 135.393L1781.14 113.725L1787.68 113.266L1784.58 146.194L1772.62 147.032L1773.41 125.598L1773.87 119.413L1772.94 119.478L1772.48 125.663L1770.41 147.187L1758.44 148.025L1759.88 115.214ZM1802.43 112.232L1789.58 113.133L1787.29 146.004L1800.18 145.101L1800.66 138.058L1795.17 138.443L1795.61 132.571L1800.57 132.223L1801.08 125.178L1796.09 125.528L1796.46 119.661L1801.95 119.275L1802.43 112.232ZM1804.52 112.086L1811.88 111.57L1810.11 137.396L1816.07 136.978L1815.6 144.021L1802.24 144.957L1804.52 112.086ZM1703.36 82.1806L1711.07 81.6407C1714.28 81.4155 1716.46 82.5865 1717.85 84.6309C1718.42 85.4869 1718.84 86.47 1718.92 87.5938C1719.09 90.0738 1718.93 93.9013 1717.92 96.0752C1717.24 97.4857 1715.82 98.3639 1713.99 98.8816L1714.05 99.7729L1717.16 100.295L1717.41 113.906L1710.41 114.397L1710.12 102.541L1709.34 102.595L1708.51 114.53L1701.07 115.051L1703.36 82.1806ZM1709.95 95.7374C1710.5 95.6995 1710.79 95.5227 1711.03 95.0387C1711.27 94.516 1711.72 88.1372 1711.69 87.711C1711.67 87.5172 1711.63 87.4037 1711.5 87.2568C1711.28 86.9604 1711 86.7856 1710.73 86.8046L1710.46 86.8236L1709.84 95.7456L1709.95 95.7374ZM1737.09 79.8173L1723.54 80.767L1718.89 113.803L1726.82 113.247L1727.61 105.014L1729.51 104.881L1729.19 113.081L1737.12 112.525L1737.09 79.8173ZM1730.06 90.0062L1729.75 97.8548L1728.32 97.9552L1729.09 90.074L1729.47 85.5301L1730.4 85.465L1730.06 90.0062ZM1739.72 79.6328L1746.19 79.1797L1745.13 100.788L1744.66 106.857L1745.59 106.792L1746.06 100.723L1747.89 79.0603L1759.24 78.2653L1758.14 99.8763L1757.67 105.945L1758.6 105.88L1759.07 99.8112L1760.98 78.1432L1767.52 77.6847L1764.42 110.612L1752.46 111.451L1753.25 90.0166L1753.71 83.8316L1752.78 83.8967L1752.32 90.0817L1750.25 111.606L1738.28 112.444L1739.72 79.6328ZM1783.67 76.5533L1770.12 77.5029L1765.47 110.539L1773.4 109.983L1774.19 101.75L1776.09 101.617L1775.77 109.817L1783.7 109.261L1783.67 76.5533ZM1776.68 86.7394L1776.37 94.588L1774.94 94.6884L1775.71 86.8073L1776.09 82.2633L1777.02 82.1982L1776.68 86.7394ZM1787.73 76.2683L1795.09 75.7528L1793.32 101.578L1799.28 101.16L1798.8 108.203L1785.45 109.139L1787.73 76.2683ZM1809.84 74.719L1802.49 75.2346L1800.2 108.105L1813.56 107.169L1814.04 100.126L1808.07 100.544L1809.84 74.719Z" fill="black"/>
<path fill-rule="evenodd" clip-rule="evenodd" d="M1303.69 110.186L1296.25 110.707L1293.97 143.578L1301.4 143.057L1301.94 135.231L1302.68 133.621L1304.69 142.826L1312.47 142.281L1307.99 124.877L1314.92 109.399L1306.82 109.966L1300.66 126.326L1299.73 126.391L1303.23 116.449L1303.69 110.186ZM1310.14 146.728L1314.24 146.441L1314.71 172.576L1314.39 177.466L1314.94 177.428L1317.11 146.279L1319.28 146.127L1316.99 178.997L1312.89 179.285L1312.42 153.15L1312.74 148.26L1312.2 148.298L1310.02 179.447L1307.85 179.599L1310.14 146.728ZM1297.24 175.358L1299.22 147.532L1301.59 147.367L1299.59 175.467C1299.45 177.384 1299.97 178.204 1301.09 178.126C1302.22 178.047 1302.82 177.148 1302.95 175.23L1304.92 147.133L1307.28 146.968L1305.29 175.184C1305.08 178.391 1303.92 180.186 1301.14 180.381C1298.12 180.593 1297.06 178.875 1297.28 175.394L1297.24 175.358ZM1326.21 145.602L1322.38 145.871L1320.09 178.742L1324.35 178.443C1326.51 178.291 1327.54 177.324 1328.13 175.219C1328.85 172.754 1330.25 152.134 1330.03 149.073C1329.98 148.336 1329.9 147.797 1329.67 147.268C1329.2 146.055 1328.03 145.475 1326.21 145.602ZM1325.79 174.681C1325.55 175.633 1325.08 176.095 1324.23 176.154L1324.19 176.157L1322.56 176.271L1324.55 148.016L1326.33 147.891C1326.87 147.853 1327.15 147.989 1327.37 148.363C1327.51 148.626 1327.57 148.895 1327.6 149.321C1327.79 152.111 1326.2 173.251 1325.79 174.681ZM1335.3 169.226L1336.07 157.528L1343.51 157.007L1342.62 170.387C1342.51 171.641 1342.57 172.026 1343.04 171.993C1343.43 171.966 1343.64 171.717 1343.7 170.818L1345.49 144.251L1352.93 143.73L1351.17 169.71C1350.86 174.21 1348.04 177.212 1343.23 177.548C1336.92 177.99 1334.93 175.131 1335.33 169.184L1335.3 169.226ZM1354.98 143.625L1353.31 167.496C1352.92 173.598 1355.09 176.757 1361.4 176.314C1366.74 175.94 1368.97 172.746 1369.29 167.973L1371.05 142.499L1363.62 143.02L1361.75 169.67C1361.69 170.453 1361.55 170.696 1361.16 170.723C1360.77 170.751 1360.46 170.656 1360.55 169.754L1362.42 143.104L1354.98 143.625ZM1372.83 142.335L1379.3 141.882L1378.24 163.491L1377.77 169.559L1378.7 169.494L1379.17 163.425L1381 141.763L1392.34 140.968L1391.25 162.579L1390.78 168.648L1391.71 168.583L1392.18 162.514L1394.09 140.846L1400.63 140.387L1397.53 173.315L1385.56 174.153L1386.36 152.719L1386.82 146.534L1385.89 146.599L1385.43 152.784L1383.36 174.308L1371.39 175.147L1372.83 142.335ZM1415.38 139.354L1402.53 140.254L1400.24 173.125L1413.13 172.222L1413.61 165.179L1408.11 165.564L1408.56 159.692L1413.52 159.344L1414.03 152.299L1409.04 152.649L1409.41 146.782L1414.9 146.397L1415.38 139.354ZM1417.47 139.207L1424.83 138.692L1423.06 164.517L1429.02 164.099L1428.54 171.142L1415.19 172.078L1417.47 139.207ZM1316.31 109.302L1324.02 108.762C1327.23 108.537 1329.41 109.708 1330.8 111.752C1331.37 112.608 1331.79 113.591 1331.87 114.715C1332.04 117.195 1331.88 121.022 1330.86 123.196C1330.19 124.607 1328.77 125.485 1326.94 126.003L1327 126.894L1330.11 127.416L1330.36 141.027L1323.35 141.519L1323.07 129.662L1322.29 129.716L1321.46 141.652L1314.02 142.172L1316.31 109.302ZM1322.9 122.859C1323.45 122.821 1323.74 122.644 1323.98 122.16C1324.22 121.637 1324.67 115.258 1324.64 114.832C1324.62 114.638 1324.58 114.525 1324.45 114.378C1324.23 114.081 1323.95 113.907 1323.68 113.926L1323.41 113.945L1322.79 122.867L1322.9 122.859ZM1350.04 106.938L1336.48 107.888L1331.83 140.924L1339.77 140.368L1340.56 132.135L1342.45 132.003L1342.13 140.203L1350.07 139.646L1350.04 106.938ZM1343.01 117.127L1342.7 124.976L1341.27 125.076L1342.04 117.195L1342.42 112.651L1343.35 112.586L1343.01 117.127ZM1352.67 106.754L1359.14 106.301L1358.08 127.909L1357.61 133.978L1358.54 133.913L1359.01 127.844L1360.84 106.181L1372.18 105.386L1371.09 126.997L1370.62 133.066L1371.55 133.001L1372.02 126.932L1373.93 105.264L1380.47 104.806L1377.37 137.734L1365.41 138.572L1366.2 117.138L1366.66 110.953L1365.73 111.018L1365.27 117.203L1363.2 138.727L1351.23 139.565L1352.67 106.754ZM1396.62 103.674L1383.07 104.624L1378.42 137.66L1386.35 137.104L1387.14 128.871L1389.04 128.738L1388.71 136.939L1396.65 136.382L1396.62 103.674ZM1389.63 113.861L1389.32 121.709L1387.89 121.809L1388.66 113.928L1389.04 109.384L1389.97 109.319L1389.63 113.861ZM1400.68 103.389L1408.04 102.874L1406.27 128.699L1412.23 128.281L1411.75 135.324L1398.4 136.26L1400.68 103.389ZM1422.79 101.84L1415.44 102.356L1413.15 135.226L1426.51 134.29L1426.99 127.247L1421.02 127.665L1422.79 101.84Z" fill="black"/>
<path fill-rule="evenodd" clip-rule="evenodd" d="M529.586 164.432L522.152 164.953L519.864 197.824L527.298 197.303L527.839 189.477L528.583 187.867L530.59 197.072L538.372 196.527L533.884 179.123L540.815 163.645L532.723 164.213L526.554 180.572L525.625 180.637L529.13 170.695L529.586 164.432ZM536.038 200.974L540.142 200.687L540.612 226.822L540.293 231.712L540.835 231.674L543.01 200.525L545.179 200.373L542.89 233.244L538.786 233.531L538.317 207.396L538.635 202.506L538.093 202.544L535.918 233.693L533.75 233.845L536.038 200.974ZM523.142 229.604L525.122 201.778L527.484 201.613L525.484 229.713C525.346 231.63 525.87 232.45 526.993 232.372C528.116 232.293 528.714 231.394 528.852 229.477L530.814 201.38L533.176 201.214L531.184 229.43C530.981 232.637 529.822 234.432 527.034 234.627C524.014 234.839 522.96 233.122 523.183 229.64L523.142 229.604ZM552.107 199.848L548.274 200.117L545.985 232.988L550.245 232.689C552.413 232.537 553.435 231.57 554.027 229.465C554.749 227 556.144 206.38 555.93 203.319C555.878 202.583 555.802 202.043 555.57 201.514C555.096 200.301 553.927 199.721 552.107 199.848ZM551.693 228.927C551.449 229.879 550.975 230.341 550.123 230.4L550.084 230.403L548.458 230.517L550.447 202.262L552.228 202.137C552.77 202.099 553.052 202.235 553.273 202.609C553.408 202.872 553.466 203.141 553.496 203.567C553.691 206.357 552.099 227.497 551.693 228.927ZM561.195 223.472L561.97 211.774L569.405 211.253L568.514 224.633C568.407 225.887 568.473 226.272 568.937 226.239C569.325 226.212 569.541 225.963 569.594 225.064L571.39 198.497L578.825 197.976L577.065 223.956C576.758 228.456 573.934 231.458 569.132 231.794C562.821 232.236 560.83 229.377 561.231 223.43L561.195 223.472ZM580.88 197.871L579.206 221.743C578.817 227.845 580.983 231.003 587.295 230.56C592.638 230.186 594.866 226.993 595.193 222.219L596.949 196.745L589.514 197.266L587.646 223.916C587.585 224.699 587.446 224.942 587.059 224.97C586.672 224.997 586.354 224.902 586.446 224L588.314 197.35L580.88 197.871ZM598.727 196.582L605.194 196.128L604.14 217.737L603.67 223.805L604.599 223.74L605.069 217.672L606.897 196.009L618.242 195.214L617.15 216.825L616.68 222.894L617.609 222.829L618.079 216.76L619.985 195.092L626.529 194.633L623.427 227.561L611.463 228.4L612.256 206.965L612.718 200.78L611.789 200.845L611.327 207.03L609.256 228.554L597.291 229.393L598.727 196.582ZM641.281 193.6L628.426 194.5L626.138 227.371L639.032 226.468L639.511 219.425L634.013 219.81L634.457 213.938L639.414 213.59L639.932 206.545L634.937 206.895L635.304 201.028L640.802 200.643L641.281 193.6ZM643.372 193.453L650.729 192.938L648.959 218.763L654.922 218.345L654.443 225.388L641.084 226.324L643.372 193.453ZM542.209 163.548L549.915 163.008C553.128 162.783 555.312 163.954 556.7 165.998C557.266 166.854 557.685 167.837 557.764 168.961C557.937 171.441 557.778 175.268 556.763 177.442C556.083 178.853 554.666 179.731 552.835 180.249L552.897 181.14L556.008 181.662L556.261 195.274L549.253 195.765L548.967 183.908L548.192 183.962L547.355 195.898L539.921 196.419L542.209 163.548ZM548.801 177.105C549.343 177.067 549.642 176.89 549.881 176.406C550.116 175.883 550.564 169.504 550.535 169.078C550.521 168.884 550.474 168.771 550.347 168.624C550.132 168.328 549.847 168.153 549.576 168.172L549.305 168.191L548.685 177.113L548.801 177.105ZM575.935 161.184L562.383 162.134L557.733 195.17L565.671 194.614L566.456 186.382L568.353 186.249L568.033 194.449L575.97 193.892L575.935 161.184ZM568.906 171.373L568.6 179.222L567.167 179.322L567.938 171.441L568.32 166.897L569.249 166.832L568.906 171.373ZM578.568 161L585.034 160.547L583.98 182.155L583.511 188.224L584.44 188.159L584.909 182.09L586.738 160.428L598.083 159.633L596.99 181.243L596.521 187.312L597.45 187.247L597.92 181.178L599.825 159.51L606.369 159.052L603.268 191.98L591.303 192.818L592.097 171.384L592.559 165.199L591.629 165.264L591.168 171.449L589.096 192.973L577.132 193.811L578.568 161ZM622.516 157.92L608.964 158.87L604.313 191.906L612.251 191.35L613.036 183.118L614.934 182.985L614.613 191.185L622.551 190.628L622.516 157.92ZM615.525 168.107L615.219 175.955L613.786 176.056L614.557 168.174L614.939 163.631L615.868 163.565L615.525 168.107ZM626.582 157.636L633.939 157.12L632.169 182.945L638.132 182.527L637.652 189.57L624.294 190.506L626.582 157.636ZM648.692 156.086L641.335 156.602L639.047 189.473L652.405 188.536L652.884 181.493L646.921 181.911L648.692 156.086Z" fill="black"/>
</svg>
