<svg width="412" height="255" viewBox="0 0 412 255" fill="none" xmlns="http://www.w3.org/2000/svg">
<path d="M0.3294 82.9087C1.95444 80.4053 3.60144 77.9239 5.18256 75.3766C5.44608 74.9594 5.51196 74.3445 5.51196 73.8394C5.2704 64.7262 4.98492 55.6349 4.74336 46.5216C4.65552 43.2277 4.74336 39.9557 4.74336 36.6618C4.74336 31.3915 5.0508 30.7107 9.02556 27.1313C11.2216 27.8779 13.2199 28.6026 15.2622 29.2614C17.3923 29.9421 19.0393 32.9286 19.0613 36.5959C19.1052 44.4574 19.0613 52.297 19.0613 60.1586C19.0613 61.9593 19.0613 63.738 19.0613 65.7363C19.6103 65.4948 19.8958 65.4728 20.0495 65.2971C28.9653 55.2616 37.881 45.2041 43.8541 33.0165C45.0839 30.5131 45.5231 27.4607 48.4438 26.209C50.0249 25.5502 52.0452 24.584 53.4507 25.0451C56.7447 26.0992 59.6653 28.1414 61.2904 31.4134C61.5539 31.9185 61.488 32.8627 61.1806 33.3459C57.645 39.0773 54.1314 44.8307 50.4421 50.4744C47.9607 54.2514 45.1937 57.8528 42.4926 61.6079C51.8476 58.5116 60.1704 51.9676 71.6336 52.3409C70.2062 51.0453 69.3058 50.0571 68.2298 49.3325C66.8682 48.4321 65.2871 47.8612 63.9256 46.9608C61.3123 45.248 60.9829 44.0622 62.8935 41.6027C64.1672 39.9557 66.0118 38.7479 67.5929 37.3425L68.2078 37.8037C68.2078 35.8932 68.1639 34.0047 68.2078 32.0942C68.2956 29.0418 70.0305 27.0215 72.5778 25.66C73.1708 25.3526 74.664 25.4184 74.7519 25.66C75.806 28.7124 78.8584 28.1634 80.9226 29.3712C81.9767 29.986 82.4818 31.7428 82.921 33.0604C83.5359 34.8391 84.3923 35.2783 86.3468 34.9928C96.646 33.5215 106.967 32.2479 117.31 30.9523C121.131 30.4691 126.687 33.7631 128.268 37.2986C128.993 38.9016 128.795 40.1533 127.544 41.4929C123.064 46.302 118.694 51.199 114.28 56.0741C113.621 56.7987 113.028 57.5454 112.15 58.5775C120.868 55.7666 127.236 48.3662 136.877 47.971C136.877 47.949 137.052 47.5318 137.074 47.0926C137.733 36.2665 138.37 25.4404 139.029 14.6143C139.248 10.947 143.267 8.28992 146.781 9.40986C152.205 11.1447 156.048 14.79 156.707 20.3458C157.739 28.8441 161.472 36.3543 164.217 44.2378C167.269 52.9997 170.563 61.6957 173.682 70.238C178.162 58.819 182.663 47.3341 187.055 36.0469C183.52 39.6044 179.962 43.1618 176.427 46.7632C175.46 47.7514 174.56 47.9929 173.33 47.1585C171.53 45.9287 169.641 44.8088 167.774 43.6449C165.974 42.503 165.644 40.9439 166.655 39.1652C171.947 29.6786 178.557 21.4657 188.593 16.5467C190.635 15.5366 192.458 14.1092 194.5 13.121C195.664 12.5721 197.157 12.1329 198.343 12.3964C200.144 12.7916 201.878 13.692 203.503 14.6143C206.358 16.2393 207.676 20.4775 206.446 23.7715C200.89 38.6162 195.137 53.395 189.8 68.3275C186.572 77.353 186.111 86.8834 186.331 96.4139C186.331 97.1825 187.231 98.2585 187.978 98.6538C196.015 102.694 204.118 106.603 212.661 110.797C211.76 105.264 210.684 100.454 210.223 95.5794C209.147 83.9628 208.181 72.3242 207.5 60.6856C207.039 52.4947 206.973 44.2598 207.083 36.0689C207.105 33.9827 208.247 31.7428 209.411 29.9202C210.618 28.0316 212.419 27.0434 214.505 29.3272C215.186 30.0958 216.35 30.6448 217.36 30.8425C220.808 31.4793 221.181 33.5655 221.203 36.6837C221.313 53.7463 223.07 70.6114 230.097 86.4003C232.381 91.495 235.851 96.0845 238.815 100.872C239.232 101.531 239.803 102.101 240.77 102.365C240.023 96.0626 239.123 89.7601 238.574 83.4577C237.761 74.1029 236.949 64.7262 236.619 55.3494C236.092 40.6804 235.982 25.9894 235.697 11.2984C235.631 7.96053 235.982 4.73246 238.09 1.96555C240.001 -0.537848 241.868 -0.603727 244.349 1.5044C245.008 2.05339 246.216 1.89967 246.962 2.40474C249.444 4.05171 250.542 6.48923 250.52 9.40986C250.388 19.0721 250.125 28.7563 250.103 38.4185C250.081 48.0808 250.256 57.743 250.388 67.4052C250.388 68.3715 250.674 69.3596 250.827 70.282C254.758 70.3478 255.197 70.0184 255.087 66.3512C254.604 49.1787 255.68 32.0502 257.108 14.9657C257.437 11.0568 261.544 8.246 265.211 9.38791C271.975 11.518 275.928 16.8103 276.608 24.2546C276.806 26.4725 277.311 28.7343 278.058 30.8425C286.007 53.4609 294.066 76.0134 301.994 98.6318C305.112 107.525 304.739 116.99 305.881 126.191C306.232 129.002 300.347 131.967 297.47 130.517C292.156 127.816 290.004 122.919 289.784 117.473C289.323 106.493 286.951 96.0186 283.306 85.7196C282.691 84.0067 282.054 83.1942 280.1 83.326C277.201 83.5236 274.281 83.3699 270.987 83.3699C270.987 86.6199 270.877 89.6943 271.03 92.7686C271.118 94.5693 270.481 95.5136 268.791 95.8649C268.439 95.9308 268.088 96.0845 267.758 96.1943C265.255 97.0508 262.905 98.7636 260.072 96.6994C256.932 94.4376 255.527 91.4291 255.131 87.674C254.934 85.8074 254.385 83.9628 253.814 82.1841C253.594 81.5033 252.826 81.0202 251.793 80.6469C252.474 85.6757 253.067 90.7044 253.858 95.6893C255.505 106.054 257.284 116.375 258.865 126.74C258.996 127.597 258.316 129.024 257.591 129.507C252.43 132.889 251.42 132.955 247.27 128.343C242.395 122.919 238.025 117.056 233.281 111.522C231.129 109.019 228.604 106.867 226.254 104.539C225.859 104.781 225.463 105 225.068 105.242C225.99 108.096 226.605 111.083 227.901 113.74C229.57 117.166 231.81 120.306 233.764 123.6C234.489 124.83 235.148 126.103 235.872 127.399C233.852 128.629 232.073 129.705 229.965 130.978C219.249 125.488 208.159 119.845 196.63 113.938C196.63 115.365 196.63 116.309 196.63 117.276C196.63 128.782 196.652 140.289 196.586 151.796C196.586 153.026 195.905 154.256 195.554 155.485L194.302 155.332C194.17 154.256 193.907 153.202 193.907 152.125C193.885 139.718 193.841 127.289 193.929 114.882C193.929 112.576 193.336 111.412 190.701 111.654V132.801C189.734 132.867 188.988 132.933 188.131 132.999C188.022 132.472 187.868 132.12 187.868 131.791C187.868 126.037 187.868 120.284 187.846 114.531C187.846 112.027 186.521 110.27 183.871 109.26C184.135 112.159 184.266 114.97 184.684 117.715C184.925 119.274 184.684 120.372 183.3 121.162C181.631 122.107 181.192 123.512 181.104 125.445C180.797 131.22 177.195 135.282 173.462 139.235C173.221 139.499 172.891 139.696 172.232 140.201C174.626 141.673 176.734 142.968 178.908 144.286C179.94 143.364 180.753 142.331 181.829 141.739C182.576 141.321 184.025 141.036 184.486 141.453C185.145 142.024 185.694 143.583 185.342 144.242C183.761 147.25 185.277 148.7 187.517 150.391C192.436 154.146 195.752 158.999 198.453 164.73C203.13 174.59 208.928 183.901 214.308 193.41C215.625 195.759 217.228 197.955 219.007 200.107C218.7 186.295 217.712 172.614 215.142 158.647C212.814 160.273 211.167 161.7 209.257 162.644C208.181 163.171 206.71 162.908 205.414 162.996C205.414 161.7 204.997 160.141 205.546 159.131C208.752 153.267 212.441 147.712 219.424 145.757C222.411 144.923 225.485 146.087 226.1 149.842C227.286 157.11 228.296 164.423 229.372 171.713C229.526 172.768 229.636 173.844 229.812 175.337C231.656 173.931 233.237 172.899 234.599 171.604C235.148 171.099 235.455 170.023 235.389 169.232C235.016 164.862 234.753 160.47 233.962 156.188C233.149 151.818 230.536 148.305 226.737 146.021C224.431 144.637 224.014 142.837 224.717 140.728C226.561 135.151 232.073 131.703 237.761 134.316C251.201 140.509 265.453 143.935 280.254 144.901C281.901 145.011 283.526 145.274 285.151 145.406C288.489 145.669 289.389 147.075 288.137 150.237C287.918 150.83 287.632 151.489 287.171 151.862C283.877 154.629 283.701 158.362 283.57 162.271C283.35 169.737 282.889 177.203 282.45 184.67C282.406 185.482 281.945 186.251 281.659 187.041C281.374 186.975 281.088 186.91 280.803 186.866V158.164C280.539 158.164 280.276 158.12 280.034 158.099C279.683 162.271 279.353 166.443 279.002 170.637C278.673 170.637 278.321 170.594 277.992 170.572V157.835C268.132 156.473 258.689 155.178 249.312 153.882V168.244C254.56 168.661 259.37 168.925 264.157 169.43C269.23 169.957 270.416 172.855 267.473 177.094C264.838 180.893 261.5 182.781 256.713 181.661C254.714 181.2 252.584 181.332 250.322 181.2V200.942C255.615 200.546 260.841 200.173 266.199 199.756C264.904 196.001 263.081 192.268 265.079 188.952C266.77 186.141 269.537 183.813 272.26 181.881C273.732 180.827 275.752 181.529 276.279 183.989C277.992 192.048 283.592 197.099 290.136 201.82C290.443 198.109 290.465 194.661 291.036 191.301C292.683 181.595 294.813 171.977 296.241 162.249C297.141 156.056 297.514 149.732 297.448 143.473C297.404 137.808 300.72 134.821 304.805 132.274C307.506 130.583 309.153 131.879 309.373 135.063C310.229 147.865 308.275 160.36 305.178 172.702C302.675 182.671 303.158 192.729 303.531 203.226C306.342 202.896 308.933 202.589 311.525 202.281C317.125 201.622 322.746 201.052 328.346 200.239C329.927 199.997 331.464 199.141 332.848 198.285C333.99 197.582 334.868 196.44 335.856 195.496C339.348 192.224 341.061 192.531 343.982 196.33C347.012 200.283 350.306 204.082 353.6 207.815C355.752 210.231 356.06 212.712 354.083 215.325C353.424 216.204 352.7 217.016 351.909 217.785C347.89 221.672 345.365 221.935 341.39 218.026C336.076 212.8 329.598 212.427 322.834 212.822C322.241 212.866 321.56 213.656 321.187 214.249C320.616 215.128 320.287 216.138 319.233 217.016C319.145 216.379 319.189 215.677 318.925 215.128C318.53 214.293 317.893 213.569 317.366 212.8C316.707 213.612 315.543 214.359 315.456 215.237C314.928 219.498 314.687 223.78 314.314 228.04C314.226 228.962 313.962 229.863 313.172 230.719C312.996 227.447 312.842 224.197 312.667 220.925C312.601 219.739 312.645 218.553 312.491 217.368C311.986 213.459 311.876 213.481 307.923 213.81C304.432 214.096 301.489 215.084 299.183 218.004C296.724 221.145 293.21 220.156 290.048 219.454C284.712 218.268 279.419 216.862 274.171 215.369C271.821 214.71 271.294 215.743 271.052 217.719C270.679 220.837 270.174 223.912 269.735 227.03C269.427 227.03 269.12 226.986 268.812 226.964C268.198 222.572 267.605 218.158 266.99 213.766C266.616 213.788 266.243 213.81 265.848 213.832C265.738 214.732 265.518 215.611 265.497 216.511C265.475 222.726 265.54 228.918 265.453 235.133C265.431 236.89 264.969 238.646 264.311 240.403C261.917 231.422 262.576 222.155 261.697 212.822C256.625 212.822 251.793 212.712 246.984 212.91C245.842 212.954 244.7 213.942 243.58 214.535C242.285 215.215 241.077 216.028 239.737 216.577C237.058 217.675 235.653 216.731 236.268 213.898C237.915 206.124 237.585 198.285 237.607 190.445C237.607 188.337 237.541 186.251 237.607 184.143C237.695 182.32 237.036 181.617 235.192 182.056C233.698 182.408 232.161 182.562 230.361 182.847C230.514 184.538 230.756 186.229 230.822 187.92C231.261 199.778 231.788 211.614 232.008 223.472C232.051 225.493 230.624 227.513 230.031 229.577C229.548 231.246 229.021 233.003 229.065 234.716C229.219 240.733 229.614 246.728 229.899 252.745C229.921 253.293 229.702 253.864 228.999 254.435C228.143 247.386 227.308 240.337 226.386 232.739C222.104 235.88 225.485 240.052 223.685 243.807C223.224 241.282 223.004 239.195 222.411 237.219C221.511 234.276 220.786 231.158 219.227 228.589C213.078 218.466 206.644 208.54 200.297 198.526C198.914 196.352 197.508 194.2 196.103 192.026C195.708 192.114 195.312 192.18 194.917 192.268C194.522 200.217 193.775 208.166 193.863 216.116C193.929 221.518 191.381 224.878 187.429 227.689C184.354 229.863 182.597 229.314 181.104 225.778C179.831 222.748 178.798 219.629 177.722 216.533C173.901 205.619 170.102 194.683 166.281 183.769C165.754 182.232 164.788 180.849 164.371 179.29C163.295 175.183 165.403 172.153 168.411 169.869C171.683 167.409 171.047 164.115 170.498 161.063C170.344 160.207 168.016 159.636 166.611 159.109C164.502 158.34 162.087 158.142 160.264 156.979C156.289 154.409 155.675 150.281 158.266 146.284C158.903 145.296 159.627 144.374 160.374 143.342C159.43 142.463 158.595 141.607 157.673 140.882C153.413 137.5 153.259 132.999 154.774 128.475C156.794 122.502 160.132 117.298 165.82 114.026C166.918 113.411 168.126 112.971 169.29 112.444C169.641 102.694 167.555 93.3176 164.48 84.1165C162.658 78.6266 162.658 78.6266 156.948 78.6266C155.411 78.6266 153.874 78.6266 151.875 78.6266C151.875 81.4155 151.744 84.0067 151.919 86.598C152.073 88.8159 151.458 90.0017 149.152 90.7483C145.99 91.7804 143.004 93.3835 140.039 89.9578L139.512 90.5507C140.281 96.3041 140.939 102.058 141.818 107.789C142.63 113.103 143.575 118.417 144.695 123.666C145.375 126.806 142.345 127.135 141.137 128.804C140.786 129.287 138.963 129.134 138.063 128.717C132.88 126.279 130.069 122.26 129.344 116.419C128.752 111.742 127.083 107.24 126.248 102.585C124.469 92.6369 124.579 82.6013 125.392 72.5658C125.523 71.0505 125.545 69.5353 125.655 67.515C119.594 70.5015 113.95 73.2245 108.351 76.0354C105.672 77.3969 103.102 78.978 100.423 80.3614C98.6005 81.3057 98.4248 82.4476 99.0396 84.3581C102.553 95.1842 105.979 106.054 109.339 116.946C109.822 118.527 111.776 121.426 107.319 120.064C107.055 119.977 106.528 120.482 106.264 120.811C104.618 122.985 102.795 122.568 100.753 121.36C95.7896 118.417 92.7152 114.091 92.1662 108.404C91.4854 101.333 87.9938 95.272 85.7319 88.772C85.5342 88.1791 84.59 87.8057 83.9531 87.4324C80.703 85.5659 77.409 83.7213 73.8954 81.7449C75.6962 79.0219 76.9479 76.9138 78.4412 74.9594C79.5172 73.5539 79.7148 72.3242 78.8584 70.7431C77.8702 68.9205 77.1236 66.966 75.9158 64.3089C71.0626 80.8665 69.1301 97.1386 66.6706 113.323C66.8902 113.455 67.0878 113.564 67.3074 113.696C70.2281 110.776 73.1708 107.855 76.0914 104.934C79.5611 101.465 80.9007 101.333 84.546 104.429C86.2809 105.9 89.3992 106.164 89.2894 109.37C89.2455 110.336 89.2016 111.632 88.6087 112.203C79.9344 120.811 72.7974 130.583 66.451 140.992C64.1672 144.725 62.2347 145.076 58.3477 143.056C54.2632 140.926 52.3966 137.983 52.2429 133.065C51.5621 112.005 54.6145 91.4071 58.9187 70.9188C59.0505 70.3039 59.1163 69.689 59.292 68.635C57.1399 69.4475 55.0098 69.7549 53.6263 70.9408C52.704 71.7313 52.6381 73.7516 52.6162 75.2448C52.5723 77.0675 52.0452 77.8141 49.981 77.1553C49.8712 75.9256 49.7614 74.608 49.6516 73.2904C46.2258 73.8907 44.5129 75.8011 44.5129 79.0219C44.5129 86.3125 44.5129 93.625 44.5129 101.135C43.6126 101.201 42.844 101.267 41.724 101.355V76.3648C34.609 78.0996 35.4654 83.875 34.587 88.772H31.9079V80.4932C28.5041 82.1621 25.5175 83.4797 22.7286 85.1486C22.1576 85.478 21.96 87.2128 22.2455 88.0693C25.6054 97.995 29.119 107.855 32.5228 117.759C33.1157 119.472 33.4671 121.272 34.038 123.358C31.6883 124.259 29.4703 125.335 27.1426 125.884C26.2422 126.103 24.9027 125.313 24.0023 124.676C20.1593 121.931 18.4684 117.803 17.0629 113.499C15.4379 108.47 13.7909 103.463 12.056 98.4781C11.4631 96.7653 10.5847 95.1403 9.77221 93.5152C7.70796 89.277 4.76532 85.9611 0 84.6436C0 84.0946 0 83.5456 0 82.9966L0.3294 82.9087ZM183.893 191.85C184.113 191.807 184.354 191.785 184.574 191.741C184.947 186.58 185.211 181.376 185.76 176.237C186.199 172.131 185.672 167.739 189.317 163.94C186.089 161.129 183.059 158.45 179.94 155.815C179.523 155.463 178.776 155.156 178.271 155.266C175.636 155.881 174.143 157.879 174.011 160.646C173.923 162.381 173.77 164.093 173.704 165.828C173.682 166.443 173.55 167.3 173.901 167.673C178.03 172.262 178.689 178.389 180.972 183.769C182.092 186.404 182.905 189.171 183.871 191.894L183.893 191.85ZM102.839 45.5115C96.4923 46.4777 90.8925 47.3122 84.6778 48.2564C86.3468 52.7142 87.862 56.7548 89.6627 61.4981C94.3402 55.8325 98.3589 50.9575 102.839 45.5115ZM166.611 121.492C166.391 121.338 166.149 121.162 165.93 121.009C163.448 123.424 161.165 126.037 161.296 129.858C161.428 133.592 164.7 134.777 167.643 137.017C167.269 131.396 166.94 126.433 166.611 121.492ZM169.268 135.239C175.109 130.715 175.834 124.237 170.41 120.789C170.014 125.73 169.663 130.364 169.268 135.239ZM271.865 56.2278C271.601 56.2717 271.338 56.2937 271.074 56.3376C271.074 59.7413 271.074 63.1451 271.074 66.5269C271.074 70.1063 272.721 71.2043 276.477 70.0404C274.939 65.4289 273.402 60.8174 271.865 56.2278ZM152.93 53.4389C152.666 53.4828 152.381 53.5048 152.117 53.5487C152.117 56.6889 152.117 59.8072 152.117 62.9474C152.139 66.3073 153.566 67.2735 157.146 66.2414C155.74 61.9812 154.335 57.721 152.908 53.4609L152.93 53.4389ZM172.32 150.698C170.102 149.315 168.389 148.129 166.567 147.185C166.062 146.921 165.227 147.316 164.524 147.404C164.7 148.019 164.678 148.832 165.095 149.183C166.984 150.918 169.202 151.642 172.32 150.698Z" fill="#00FFE0"/>
<path d="M344.816 105.111C340.644 110.404 337.042 115.301 333.046 119.89C331.113 122.108 328.522 123.755 326.084 125.49C325.623 125.819 324.503 125.468 323.801 125.139C318.311 122.701 314.226 118.792 312.008 113.171C308.319 103.86 304.695 94.5268 301.226 85.1281C297.756 75.7513 295.714 66.133 296.043 55.9876C296.395 45.2274 296.241 34.4452 296.043 23.685C295.977 19.886 298.986 18.261 300.765 15.7576C300.918 15.538 301.599 15.6039 302.016 15.6917C307.902 16.9654 311.788 21.8185 311.81 27.9013C311.832 39.2105 311.964 50.5417 311.767 61.8509C311.657 67.6043 312.733 73.1162 314.534 78.4743C317.213 86.5115 320.089 94.4829 322.944 102.454C323.186 103.135 323.866 103.64 324.328 104.233C324.833 103.728 325.36 103.223 325.865 102.718C329.752 98.765 333.617 94.8342 337.482 90.8815C338.162 90.1788 338.777 89.4322 339.414 88.6855C339.26 88.4879 339.107 88.2903 338.953 88.0926C338.294 88.2463 337.635 88.3122 336.999 88.5318C332.475 90.069 326.26 87.7193 323.954 83.4372C322.79 81.2632 323.888 79.2209 325.601 78.2327C327.973 76.8713 330.762 76.1466 333.397 75.2682C334.319 74.9608 335.352 75.0706 336.669 74.9388V71.6009C336.669 59.6329 336.801 47.6869 336.581 35.7409C336.515 31.8101 339.502 30.0972 341.325 27.528C341.478 27.3084 342.137 27.3742 342.554 27.4401C348.308 28.604 352.371 33.6327 352.371 39.5618C352.371 49.5096 352.371 59.4573 352.371 69.405V72.5452C355.269 72.3476 357.883 72.0401 360.496 72.0401C365.503 72.0841 370.136 75.7294 371.256 80.253C371.651 81.8341 371.366 82.5808 369.719 83.5909C365.261 86.3578 361.133 89.6518 356.916 92.8139C356.565 93.0775 356.367 93.9778 356.521 94.4389C358.937 101.312 361.374 108.186 363.944 114.993C364.053 115.301 365.92 115.454 366.03 115.213C368.753 109.767 373.694 106.495 378.042 102.63C378.767 101.993 379.337 101.181 379.996 100.434C379.843 100.214 379.689 99.9947 379.513 99.7751C378.701 99.9947 377.866 100.17 377.054 100.434C372.925 101.773 366.161 98.9187 364.405 94.9001C363.504 92.8359 364.536 90.7937 366.227 89.9372C369.016 88.5318 372.047 87.3899 375.121 86.8629C381.951 85.699 388.846 84.9304 395.72 84.096C399.431 83.6348 403.164 83.3274 406.656 85.3257C409.511 86.9727 411.465 89.2565 411.97 92.5285C412.08 93.2312 411.685 94.5488 411.201 94.7464C403.581 97.8207 398.091 103.64 392.645 109.393C386.562 115.828 381.006 122.723 375.121 129.333C372.859 131.88 370.312 134.164 367.874 136.536C366.71 137.677 365.503 137.414 364.163 136.755C358.278 133.9 354.281 129.487 352.041 123.316C349.889 117.409 347.452 111.633 344.838 105.045L344.816 105.111Z" fill="#00FFE0"/>
<path d="M104.025 188.161C106.067 180.431 108.307 172.723 110.042 164.928C110.744 161.787 110.481 158.406 110.437 155.134C110.437 153.531 109.668 152.389 107.802 151.818C106.857 151.532 105.759 150.017 105.628 148.963C104.969 143.605 110.942 137.939 114.653 137.829C116.542 137.786 119.177 139.191 120.231 140.772C121.593 142.836 122.01 145.669 122.295 148.238C123.503 159.262 119.88 169.473 116.805 179.794C115.905 182.803 115.685 186.031 115.224 189.171C114.499 193.958 117.376 195.781 120.736 196.637C125.831 197.955 131.057 198.68 136.262 199.536C138.238 199.865 140.259 199.821 142.257 199.997C146.232 200.349 146.847 199.734 147 195.803C147.396 185.877 146.407 176.127 143.728 166.575C141.708 159.372 139.6 152.213 137.557 145.032C135.998 139.542 138.326 134.316 143.421 131.834C146.078 130.539 148.384 131.439 149.394 134.579C151.524 141.255 153.413 148.019 155.411 154.76C159.144 167.431 162.812 180.124 166.633 192.772C167.489 195.627 168.587 198.548 170.168 201.051C173.396 206.234 171.31 208.276 168.126 211.877C164.195 216.291 158.617 215.545 155.521 210.604C155.016 209.769 155.06 208.539 155.06 207.485C155.06 206.739 155.411 205.992 155.323 205.026C151.436 207.903 148.252 211.877 143.069 212.097C138.348 212.295 133.605 212.141 128.576 212.141C127.829 222.725 127.105 232.937 126.38 243.148C126.116 243.148 125.853 243.148 125.611 243.148V211.789C125.326 211.702 125.018 211.592 124.733 211.504C124.403 211.943 123.854 212.36 123.767 212.866C123.349 215.193 123.064 217.565 122.669 219.893C122.537 220.639 122.164 221.342 121.9 222.067C121.593 222.023 121.285 221.957 120.978 221.913C120.978 219.519 120.802 217.104 121.022 214.732C121.263 212.185 120.429 211.131 117.837 210.472C113.95 209.484 110.217 207.837 106.484 206.475C106.243 209.484 106.111 213.151 105.65 216.774C104.486 225.8 100.489 233.398 93.4837 239.305C91.683 240.82 89.6847 242.226 87.5545 243.148C85.1389 244.202 84.019 245.739 83.9092 248.308C83.8653 249.538 83.4041 250.768 82.4598 252.063C81.8669 250.065 81.274 248.067 80.703 246.047C80.4615 246.047 80.2419 246.047 80.0003 246.047V253.557C79.627 253.601 79.2537 253.645 78.8803 253.688C78.4631 251.69 77.958 249.692 77.6286 247.672C77.3651 246.112 76.882 244.927 75.1471 244.531C69.6791 243.28 65.7482 239.59 62.608 235.374C53.8679 223.648 50.53 210.384 52.9456 195.869C53.9338 189.94 56.3713 184.669 62.1248 181.749C63.135 181.244 64.8698 180.892 65.5506 181.397C66.2753 181.924 66.5827 183.747 66.2753 184.779C64.1232 192.399 63.706 200.195 65.7043 207.749C68.1419 217.016 72.1386 225.668 80.725 231.07C85.8417 234.276 91.0681 233.551 92.6053 226.722C94.7574 217.06 94.0547 207.42 91.6391 197.999C86.6981 178.762 81.3399 159.635 76.1134 140.487C74.4224 134.316 77.6286 128.321 83.6896 126.498C85.7758 125.861 87.0055 126.608 87.5545 128.65C92.5175 147.031 97.5024 165.411 102.465 183.769C102.839 185.174 103.146 186.602 103.476 188.007L104.003 188.139L104.025 188.161Z" fill="#00FFE0"/>
</svg>
