<svg width="1728" height="103" viewBox="0 0 1728 103" fill="none" xmlns="http://www.w3.org/2000/svg">
<path fill-rule="evenodd" clip-rule="evenodd" d="M1063.63 15.9988L1056.17 15.9245L1051.27 48.5077L1058.72 48.582L1059.88 40.824L1060.75 39.2788L1062.02 48.6148L1069.82 48.6926L1066.74 30.9862L1074.88 16.111L1066.77 16.0301L1059.31 31.8445L1058.38 31.8353L1062.67 22.2049L1063.63 15.9988ZM1067.14 52.9393L1071.25 52.9803L1069.63 79.0698L1068.93 83.9187L1069.47 83.9241L1074.13 53.0478L1076.3 53.0694L1071.39 85.6526L1067.28 85.6116L1068.9 59.5221L1069.61 54.6732L1069.06 54.6678L1064.41 85.5441L1062.23 85.5225L1067.14 52.9393ZM1052 80.4481L1056.19 52.8692L1058.56 52.8928L1054.32 80.7432C1054.03 82.6438 1054.49 83.503 1055.62 83.5142C1056.74 83.5255 1057.41 82.6775 1057.7 80.7768L1061.9 52.926L1064.27 52.9496L1060.03 80.9166C1059.57 84.0975 1058.27 85.7939 1055.48 85.766C1052.45 85.7358 1051.54 83.9398 1052.04 80.4873L1052 80.4481ZM1083.25 53.0998L1079.4 53.0615L1074.5 85.6447L1078.77 85.6872C1080.94 85.7089 1082.04 84.8263 1082.8 82.7749C1083.71 80.3755 1086.75 59.9331 1086.78 56.8644C1086.79 56.1264 1086.75 55.5822 1086.57 55.0364C1086.19 53.7896 1085.07 53.118 1083.25 53.0998ZM1080.51 82.0529C1080.19 82.9821 1079.68 83.4043 1078.83 83.3958L1078.79 83.3954L1077.16 83.3792L1081.4 55.3734L1083.19 55.3912C1083.73 55.3966 1084 55.5547 1084.19 55.9451C1084.3 56.2182 1084.34 56.4905 1084.33 56.9177C1084.31 59.7145 1081.03 80.6596 1080.51 82.0529ZM1090.42 77.3734L1092.13 65.7749L1099.58 65.8492L1097.62 79.1156C1097.42 80.3567 1097.45 80.7455 1097.92 80.7501C1098.3 80.754 1098.54 80.5233 1098.67 79.631L1102.58 53.2924L1110.03 53.3667L1106.2 79.1234C1105.54 83.5842 1102.48 86.3508 1097.67 86.3029C1091.34 86.2398 1089.58 83.2311 1090.46 77.3349L1090.42 77.3734ZM1112.09 53.4261L1108.51 77.0876C1107.64 83.1391 1109.54 86.4602 1115.87 86.5232C1121.23 86.5766 1123.7 83.5711 1124.41 78.8388L1128.19 53.5866L1120.74 53.5124L1116.75 79.9279C1116.63 80.7036 1116.47 80.9351 1116.08 80.9312C1115.69 80.9274 1115.38 80.8077 1115.55 79.9159L1119.54 53.5004L1112.09 53.4261ZM1129.98 53.5655L1136.46 53.6301L1133.69 75.0852L1132.73 81.0971L1133.66 81.1063L1134.62 75.0945L1138.17 53.6471L1149.54 53.7604L1146.73 75.2151L1145.77 81.227L1146.71 81.2363L1147.66 75.2244L1151.29 53.7778L1157.85 53.8432L1152.13 86.4182L1140.13 86.2987L1142.64 64.9963L1143.59 58.8678L1142.66 58.8586L1141.7 64.987L1137.92 86.2767L1125.93 86.1571L1129.98 53.5655ZM1172.64 53.9905L1159.75 53.8621L1154.84 86.4453L1167.77 86.5741L1168.81 79.5919L1163.3 79.5369L1164.21 73.7189L1169.18 73.7684L1170.26 66.7866L1165.25 66.7367L1166.08 60.9178L1171.6 60.9728L1172.64 53.9905ZM1174.73 54.0114L1182.11 54.0849L1178.28 79.6862L1184.26 79.7458L1183.22 86.728L1169.83 86.5946L1174.73 54.0114ZM1076.28 16.1249L1084 16.2018C1087.22 16.2339 1089.31 17.5755 1090.53 19.7243C1091.02 20.6227 1091.36 21.6362 1091.35 22.7626C1091.33 25.2486 1090.86 29.0511 1089.68 31.137C1088.89 32.4888 1087.4 33.251 1085.54 33.6209L1085.53 34.5143L1088.59 35.2829L1087.75 48.8712L1080.73 48.8012L1081.39 36.9593L1080.61 36.9516L1078.83 48.7823L1071.37 48.708L1076.28 16.1249ZM1081.77 30.1647C1082.31 30.1701 1082.62 30.0179 1082.9 29.5544C1083.18 29.0522 1084.13 22.7295 1084.14 22.3023C1084.14 22.108 1084.1 21.9911 1083.99 21.8346C1083.79 21.5219 1083.52 21.325 1083.25 21.3223L1082.98 21.3196L1081.65 30.1636L1081.77 30.1647ZM1110.09 16.4618L1096.5 16.3264L1089.23 48.8859L1097.19 48.9652L1098.63 40.8216L1100.53 40.8405L1099.55 48.9888L1107.51 49.0681L1110.09 16.4618ZM1102.27 26.0569L1101.33 33.856L1099.9 33.8417L1101.3 26.0472L1102.04 21.5483L1102.97 21.5576L1102.27 26.0569ZM1112.72 16.488L1119.21 16.5526L1116.43 38.0077L1115.48 44.0196L1116.41 44.0289L1117.36 38.017L1120.91 16.5697L1132.29 16.683L1129.47 38.1377L1128.52 44.1496L1129.45 44.1589L1130.4 38.147L1134.03 16.7004L1140.59 16.7657L1134.87 49.3408L1122.88 49.2213L1125.38 27.9188L1126.34 21.7904L1125.4 21.7811L1124.45 27.9096L1120.67 49.1992L1108.67 49.0797L1112.72 16.488ZM1156.78 16.927L1143.19 16.7917L1135.92 49.3512L1143.88 49.4305L1145.32 41.2868L1147.22 41.3058L1146.25 49.4541L1154.2 49.5334L1156.78 16.927ZM1149 26.5225L1148.07 34.3216L1146.63 34.3073L1148.03 26.5129L1148.77 22.014L1149.7 22.0232L1149 26.5225ZM1160.85 16.9676L1168.23 17.0411L1164.4 42.6424L1170.38 42.702L1169.34 49.6842L1155.95 49.5508L1160.85 16.9676ZM1183.02 17.1885L1175.64 17.115L1170.74 49.6981L1184.13 49.8316L1185.17 42.8494L1179.19 42.7898L1183.02 17.1885Z" fill="black"/>
<path fill-rule="evenodd" clip-rule="evenodd" d="M287.664 8.26443L280.212 8.19017L275.307 40.7733L282.759 40.8476L283.923 33.0896L284.793 31.5444L286.058 40.8805L293.86 40.9582L290.776 23.2518L298.92 8.37659L290.808 8.29575L283.353 24.1102L282.421 24.1009L286.71 14.4705L287.664 8.26443ZM291.178 45.2049L295.292 45.2459L293.673 71.3354L292.965 76.1843L293.508 76.1897L298.164 45.3134L300.337 45.3351L295.432 77.9182L291.318 77.8772L292.936 51.7877L293.645 46.9388L293.101 46.9334L288.446 77.8098L286.272 77.7881L291.178 45.2049ZM276.037 72.7137L280.232 45.1348L282.6 45.1584L278.363 73.0088C278.072 74.9094 278.529 75.7686 279.655 75.7799C280.781 75.7911 281.449 74.9431 281.74 73.0425L285.938 45.1917L288.305 45.2153L284.067 73.1822C283.609 76.3631 282.311 78.0595 279.516 78.0316C276.489 78.0015 275.575 76.2054 276.075 72.7529L276.037 72.7137ZM307.285 45.3654L303.443 45.3272L298.538 77.9103L302.807 77.9529C304.981 77.9745 306.076 77.0919 306.834 75.0406C307.751 72.6411 310.788 52.1987 310.819 49.13C310.826 48.392 310.793 47.8478 310.604 47.3021C310.229 46.0552 309.11 45.3836 307.285 45.3654ZM304.551 74.3186C304.232 75.2477 303.723 75.67 302.869 75.6615L302.83 75.6611L301.2 75.6448L305.438 47.6391L307.224 47.6568C307.767 47.6623 308.037 47.8203 308.227 48.2107C308.341 48.4838 308.377 48.7561 308.373 49.1834C308.345 51.9801 305.07 72.9252 304.551 74.3186ZM314.458 69.639L316.165 58.0406L323.618 58.1148L321.661 71.3812C321.455 72.6223 321.489 73.0111 321.955 73.0158C322.343 73.0196 322.579 72.7889 322.704 71.8966L326.615 45.5581L334.067 45.6323L330.24 71.389C329.574 75.8499 326.519 78.6165 321.706 78.5685C315.379 78.5055 313.624 75.4967 314.497 69.6006L314.458 69.639ZM336.124 45.6918L332.55 69.3532C331.675 75.4047 333.582 78.7258 339.909 78.7888C345.265 78.8422 347.741 75.8367 348.448 71.1044L352.232 45.8523L344.78 45.778L340.79 72.1935C340.666 72.9692 340.508 73.2007 340.12 73.1969C339.732 73.193 339.423 73.0734 339.587 72.1815L343.576 45.766L336.124 45.6918ZM354.018 45.8311L360.5 45.8957L357.724 67.3508L356.771 73.3627L357.703 73.372L358.655 67.3601L362.207 45.9127L373.58 46.026L370.765 67.4807L369.813 73.4926L370.744 73.5019L371.697 67.49L375.326 46.0434L381.886 46.1088L376.166 78.6838L364.172 78.5643L366.675 57.2619L367.629 51.1335L366.697 51.1242L365.743 57.2526L361.96 78.5423L349.966 78.4228L354.018 45.8311ZM396.674 46.2562L383.788 46.1278L378.883 78.7109L391.808 78.8397L392.848 71.8575L387.336 71.8026L388.248 65.9845L393.216 66.034L394.295 59.0522L389.288 59.0023L390.122 53.1835L395.634 53.2384L396.674 46.2562ZM398.77 46.277L406.145 46.3505L402.318 71.9519L408.296 72.0114L407.256 78.9936L393.865 78.8602L398.77 46.277ZM300.317 8.39051L308.041 8.46747C311.263 8.49957 313.346 9.84115 314.566 11.9899C315.062 12.8884 315.401 13.9018 315.39 15.0283C315.365 17.5143 314.9 21.3167 313.715 23.4027C312.925 24.7545 311.443 25.5166 309.576 25.8865L309.567 26.7799L312.626 27.5485L311.792 41.1369L304.766 41.0669L305.428 29.2249L304.652 29.2172L302.864 41.0479L295.412 40.9737L300.317 8.39051ZM305.806 22.4304C306.349 22.4358 306.662 22.2835 306.938 21.8201C307.215 21.3178 308.17 14.9952 308.175 14.5679C308.177 14.3737 308.139 14.2567 308.024 14.1002C307.833 13.7875 307.563 13.5906 307.292 13.5879L307.02 13.5852L305.69 22.4292L305.806 22.4304ZM334.125 8.72738L320.54 8.59201L313.267 41.1516L321.224 41.2309L322.664 33.0872L324.565 33.1061L323.591 41.2544L331.548 41.3337L334.125 8.72738ZM326.304 18.3225L325.373 26.1216L323.936 26.1073L325.334 18.3128L326.077 13.8139L327.009 13.8232L326.304 18.3225ZM336.763 8.75367L343.245 8.81826L340.47 30.2734L339.517 36.2852L340.448 36.2945L341.401 30.2826L344.953 8.83528L356.325 8.9486L353.511 30.4033L352.558 36.4152L353.49 36.4245L354.442 30.4126L358.072 8.966L364.632 9.03136L358.911 41.6064L346.918 41.4869L349.42 20.1845L350.374 14.056L349.443 14.0468L348.489 20.1752L344.706 41.4648L332.712 41.3453L336.763 8.75367ZM380.817 9.19264L367.232 9.05728L359.959 41.6168L367.916 41.6961L369.356 33.5525L371.258 33.5714L370.284 41.7197L378.241 41.799L380.817 9.19264ZM373.035 18.7882L372.104 26.5873L370.668 26.573L372.065 18.7785L372.809 14.2796L373.74 14.2889L373.035 18.7882ZM384.893 9.23325L392.267 9.30674L388.441 34.9081L394.418 34.9676L393.378 41.9498L379.988 41.8164L384.893 9.23325ZM407.056 9.4541L399.681 9.38061L394.776 41.9638L408.167 42.0972L409.207 35.115L403.229 35.0554L407.056 9.4541Z" fill="black"/>
<path fill-rule="evenodd" clip-rule="evenodd" d="M-100.316 4.40114L-107.769 4.32689L-112.674 36.91L-105.222 36.9843L-104.057 29.2264L-103.188 27.6811L-101.922 37.0172L-94.1208 37.0949L-97.2051 19.3885L-89.0604 4.5133L-97.1725 4.43247L-104.628 20.2469L-105.559 20.2376L-101.271 10.6073L-100.316 4.40114ZM-96.8031 41.3417L-92.6888 41.3827L-94.3074 67.4722L-95.0156 72.321L-94.4722 72.3265L-89.817 41.4501L-87.6434 41.4718L-92.5486 74.0549L-96.6628 74.0139L-95.0442 47.9244L-94.336 43.0755L-94.8794 43.0701L-99.5347 73.9465L-101.708 73.9248L-96.8031 41.3417ZM-111.944 68.8504L-107.749 41.2715L-105.381 41.2951L-109.618 69.1455C-109.908 71.0462 -109.451 71.9054 -108.326 71.9166C-107.2 71.9278 -106.532 71.0798 -106.241 69.1792L-102.043 41.3284L-99.6753 41.352L-103.913 69.3189C-104.372 72.4998 -105.67 74.1962 -108.465 74.1684C-111.492 74.1382 -112.406 72.3421 -111.905 68.8896L-111.944 68.8504ZM-80.6954 41.5022L-84.5379 41.4639L-89.4431 74.047L-85.1736 74.0896C-83 74.1112 -81.9043 73.2287 -81.1463 71.1773C-80.2296 68.7779 -77.1923 48.3354 -77.1617 45.2668C-77.1543 44.5287 -77.1877 43.9845 -77.3764 43.4388C-77.7521 42.1919 -78.8711 41.5203 -80.6954 41.5022ZM-83.4294 70.4553C-83.7492 71.3844 -84.258 71.8067 -85.1119 71.7982L-85.1507 71.7978L-86.7809 71.7815L-82.5425 43.7758L-80.757 43.7936C-80.2136 43.799 -79.9435 43.9571 -79.7533 44.3474C-79.6396 44.6205 -79.6035 44.8928 -79.6077 45.3201C-79.6356 48.1168 -82.9109 69.0619 -83.4294 70.4553ZM-73.5225 65.7757L-71.8154 54.1773L-64.3631 54.2515L-66.3197 67.518C-66.5262 68.759 -66.4913 69.1478 -66.0255 69.1525C-65.6374 69.1563 -65.4022 68.9256 -65.2768 68.0334L-61.3655 41.6948L-53.9133 41.769L-57.7411 67.5257C-58.4067 71.9866 -61.462 74.7532 -66.2749 74.7052C-72.6015 74.6422 -74.3572 71.6334 -73.4832 65.7373L-73.5225 65.7757ZM-51.8565 41.8285L-55.4306 65.4899C-56.3061 71.5414 -54.3983 74.8625 -48.0717 74.9255C-42.7154 74.9789 -40.2399 71.9735 -39.5329 67.2411L-35.7489 41.989L-43.2011 41.9147L-47.1908 68.3302C-47.315 69.1059 -47.4726 69.3374 -47.8607 69.3336C-48.2488 69.3297 -48.5582 69.2101 -48.394 68.3182L-44.4043 41.9027L-51.8565 41.8285ZM-33.963 41.9678L-27.4812 42.0324L-30.2569 63.4875L-31.2096 69.4994L-30.2781 69.5087L-29.3254 63.4968L-25.7734 42.0494L-14.4009 42.1628L-17.2155 63.6175L-18.1682 69.6294L-17.2367 69.6386L-16.284 63.6267L-12.6543 42.1802L-6.09481 42.2455L-11.815 74.8206L-23.8085 74.701L-21.306 53.3986L-20.3521 47.2702L-21.2836 47.2609L-22.2375 53.3893L-26.0209 74.679L-38.0143 74.5595L-33.963 41.9678ZM8.69332 42.3929L-4.19284 42.2645L-9.09797 74.8476L3.82699 74.9764L4.867 67.9942L-0.64455 67.9393L0.267409 62.1212L5.23557 62.1707L6.3144 55.1889L1.30742 55.139L2.14176 49.3202L7.65331 49.3751L8.69332 42.3929ZM10.7892 42.4138L18.1639 42.4872L14.3375 68.0886L20.3148 68.1481L19.2748 75.1303L5.8841 74.9969L10.7892 42.4138ZM-87.6633 4.52723L-79.9394 4.60419C-76.7178 4.63629 -74.6351 5.97787 -73.4143 8.12665C-72.9186 9.02509 -72.5794 10.0385 -72.5906 11.165C-72.6154 13.651 -73.0803 17.4534 -74.2656 19.5394C-75.0554 20.8912 -76.538 21.6534 -78.405 22.0232L-78.4139 22.9166L-75.355 23.6852L-76.1891 37.2736L-83.2143 37.2036L-82.5529 25.3616L-83.3292 25.3539L-85.1162 37.1846L-92.5684 37.1104L-87.6633 4.52723ZM-82.1747 18.5671C-81.6313 18.5725 -81.3192 18.4202 -81.0429 17.9568C-80.7661 17.4545 -79.8103 11.1319 -79.8061 10.7046C-79.8041 10.5104 -79.8418 10.3935 -79.9567 10.2369C-80.1477 9.92424 -80.4174 9.72732 -80.6891 9.72461L-80.9608 9.7219L-82.2911 18.5659L-82.1747 18.5671ZM-53.8561 4.8641L-67.4409 4.72873L-74.7137 37.2883L-66.7569 37.3676L-65.3171 29.2239L-63.4153 29.2429L-64.3893 37.3912L-56.4324 37.4705L-53.8561 4.8641ZM-61.6764 14.4592L-62.6081 22.2583L-64.0442 22.244L-62.6468 14.4496L-61.9032 9.95065L-60.9717 9.95993L-61.6764 14.4592ZM-51.2173 4.89039L-44.7355 4.95498L-47.5112 26.4101L-48.4639 32.422L-47.5324 32.4312L-46.5797 26.4194L-43.0276 4.972L-31.6552 5.08532L-34.4698 26.54L-35.4225 32.5519L-34.491 32.5612L-33.5383 26.5493L-29.9086 5.10272L-23.3491 5.16808L-29.0693 37.7431L-41.0628 37.6236L-38.5603 16.3212L-37.6064 10.1928L-38.5379 10.1835L-39.4918 16.3119L-43.2752 37.6016L-55.2686 37.4821L-51.2173 4.89039ZM-7.16378 5.32936L-20.7486 5.19399L-28.0214 37.7536L-20.0646 37.8328L-18.6248 29.6892L-16.7229 29.7081L-17.6969 37.8564L-9.74011 37.9357L-7.16378 5.32936ZM-14.9453 14.9249L-15.877 22.724L-17.3131 22.7097L-15.9156 14.9152L-15.1721 10.4163L-14.2405 10.4256L-14.9453 14.9249ZM-3.08791 5.36997L4.28669 5.44346L0.460371 31.0448L6.43768 31.1043L5.39767 38.0866L-7.99306 37.9531L-3.08791 5.36997ZM19.0749 5.59081L11.7003 5.51733L6.79519 38.1005L20.1859 38.2339L21.2259 31.2517L15.2486 31.1921L19.0749 5.59081Z" fill="black"/>
<path fill-rule="evenodd" clip-rule="evenodd" d="M1451.61 19.866L1444.15 19.7917L1439.25 52.3749L1446.7 52.4491L1447.87 44.6912L1448.73 43.146L1450 52.482L1457.8 52.5598L1454.72 34.8533L1462.86 19.9781L1454.75 19.8973L1447.3 35.7117L1446.36 35.7024L1450.65 26.0721L1451.61 19.866ZM1455.12 56.8065L1459.23 56.8475L1457.62 82.937L1456.91 87.7859L1457.45 87.7913L1462.11 56.915L1464.28 56.9366L1459.37 89.5198L1455.26 89.4788L1456.88 63.3893L1457.59 58.5404L1457.04 58.535L1452.39 89.4113L1450.21 89.3897L1455.12 56.8065ZM1439.98 84.3153L1444.17 56.7364L1446.54 56.76L1442.31 84.6104C1442.01 86.511 1442.47 87.3702 1443.6 87.3814C1444.72 87.3926 1445.39 86.5447 1445.68 84.644L1449.88 56.7932L1452.25 56.8168L1448.01 84.7837C1447.55 87.9647 1446.25 89.6611 1443.46 89.6332C1440.43 89.603 1439.52 87.8069 1440.02 84.3545L1439.98 84.3153ZM1471.23 56.967L1467.38 56.9287L1462.48 89.5119L1466.75 89.5544C1468.92 89.5761 1470.02 88.6935 1470.78 86.6421C1471.69 84.2427 1474.73 63.8003 1474.76 60.7316C1474.77 59.9936 1474.74 59.4494 1474.55 58.9036C1474.17 57.6568 1473.05 56.9852 1471.23 56.967ZM1468.49 85.9201C1468.17 86.8493 1467.66 87.2715 1466.81 87.263L1466.77 87.2626L1465.14 87.2464L1469.38 59.2406L1471.17 59.2584C1471.71 59.2638 1471.98 59.4219 1472.17 59.8123C1472.28 60.0853 1472.32 60.3576 1472.32 60.7849C1472.29 63.5817 1469.01 84.5268 1468.49 85.9201ZM1478.4 81.2406L1480.11 69.6421L1487.56 69.7164L1485.6 82.9828C1485.4 84.2239 1485.43 84.6127 1485.9 84.6173C1486.29 84.6212 1486.52 84.3905 1486.65 83.4982L1490.56 57.1596L1498.01 57.2339L1494.18 82.9906C1493.52 87.4514 1490.46 90.218 1485.65 90.1701C1479.32 90.107 1477.57 87.0983 1478.44 81.2021L1478.4 81.2406ZM1500.07 57.2933L1496.49 80.9548C1495.62 87.0063 1497.52 90.3273 1503.85 90.3904C1509.21 90.4438 1511.68 87.4383 1512.39 82.7059L1516.17 57.4538L1508.72 57.3796L1504.73 83.7951C1504.61 84.5708 1504.45 84.8023 1504.06 84.7984C1503.67 84.7946 1503.36 84.6749 1503.53 83.7831L1507.52 57.3676L1500.07 57.2933ZM1517.96 57.4327L1524.44 57.4973L1521.67 78.9524L1520.71 84.9643L1521.64 84.9735L1522.6 78.9616L1526.15 57.5143L1537.52 57.6276L1534.71 79.0823L1533.75 85.0942L1534.69 85.1035L1535.64 79.0916L1539.27 57.645L1545.83 57.7104L1540.11 90.2854L1528.11 90.1659L1530.62 68.8635L1531.57 62.735L1530.64 62.7258L1529.69 68.8542L1525.9 90.1438L1513.91 90.0243L1517.96 57.4327ZM1560.62 57.8577L1547.73 57.7293L1542.82 90.3125L1555.75 90.4413L1556.79 83.459L1551.28 83.4041L1552.19 77.5861L1557.16 77.6356L1558.24 70.6537L1553.23 70.6039L1554.06 64.785L1559.58 64.8399L1560.62 57.8577ZM1562.71 57.8786L1570.09 57.9521L1566.26 83.5534L1572.24 83.613L1571.2 90.5952L1557.81 90.4618L1562.71 57.8786ZM1464.26 19.9921L1471.98 20.069C1475.21 20.1011 1477.29 21.4427 1478.51 23.5915C1479 24.4899 1479.34 25.5033 1479.33 26.6298C1479.31 29.1158 1478.84 32.9183 1477.66 35.0042C1476.87 36.356 1475.38 37.1182 1473.52 37.4881L1473.51 38.3815L1476.57 39.1501L1475.73 52.7384L1468.71 52.6684L1469.37 40.8265L1468.59 40.8188L1466.81 52.6495L1459.35 52.5752L1464.26 19.9921ZM1469.75 34.0319C1470.29 34.0373 1470.6 33.8851 1470.88 33.4216C1471.16 32.9194 1472.11 26.5967 1472.12 26.1694C1472.12 25.9752 1472.08 25.8583 1471.97 25.7018C1471.78 25.3891 1471.51 25.1922 1471.23 25.1895L1470.96 25.1867L1469.63 34.0308L1469.75 34.0319ZM1498.07 20.3289L1484.48 20.1936L1477.21 52.7531L1485.17 52.8324L1486.61 44.6888L1488.51 44.7077L1487.53 52.856L1495.49 52.9353L1498.07 20.3289ZM1490.25 29.9241L1489.31 37.7232L1487.88 37.7089L1489.28 29.9144L1490.02 25.4155L1490.95 25.4248L1490.25 29.9241ZM1500.71 20.3552L1507.19 20.4198L1504.41 41.8749L1503.46 47.8868L1504.39 47.8961L1505.34 41.8842L1508.9 20.4368L1520.27 20.5502L1517.45 42.0049L1516.5 48.0168L1517.43 48.026L1518.38 42.0141L1522.01 20.5676L1528.57 20.6329L1522.85 53.208L1510.86 53.0884L1513.36 31.786L1514.32 25.6576L1513.38 25.6483L1512.43 31.7767L1508.65 53.0664L1496.65 52.9469L1500.71 20.3552ZM1544.76 20.7942L1531.17 20.6588L1523.9 53.2184L1531.86 53.2977L1533.3 45.154L1535.2 45.173L1534.23 53.3213L1542.18 53.4006L1544.76 20.7942ZM1536.98 30.3897L1536.05 38.1888L1534.61 38.1745L1536.01 30.3801L1536.75 25.8811L1537.68 25.8904L1536.98 30.3897ZM1548.83 20.8348L1556.21 20.9083L1552.38 46.5096L1558.36 46.5692L1557.32 53.5514L1543.93 53.418L1548.83 20.8348ZM1571 21.0557L1563.62 20.9822L1558.72 53.5653L1572.11 53.6988L1573.15 46.7165L1567.17 46.657L1571 21.0557Z" fill="black"/>
<path fill-rule="evenodd" clip-rule="evenodd" d="M675.645 12.1316L668.193 12.0574L663.288 44.6405L670.74 44.7148L671.904 36.9568L672.773 35.4116L674.039 44.7476L681.841 44.8254L678.756 27.119L686.901 12.2438L678.789 12.1629L671.334 27.9773L670.402 27.9681L674.69 18.3377L675.645 12.1316ZM679.158 49.0721L683.273 49.1131L681.654 75.2026L680.946 80.0515L681.489 80.0569L686.144 49.1806L688.318 49.2023L683.413 81.7854L679.299 81.7444L680.917 55.6549L681.625 50.806L681.082 50.8006L676.427 81.6769L674.253 81.6553L679.158 49.0721ZM664.018 76.5809L668.213 49.002L670.581 49.0256L666.344 76.876C666.053 78.7766 666.51 79.6358 667.636 79.647C668.761 79.6583 669.43 78.8103 669.72 76.9096L673.918 49.0589L676.286 49.0825L672.048 77.0494C671.589 80.2303 670.291 81.9267 667.497 81.8988C664.469 81.8687 663.556 80.0726 664.056 76.6201L664.018 76.5809ZM695.266 49.2326L691.423 49.1943L686.518 81.7775L690.788 81.82C692.961 81.8417 694.057 80.9591 694.815 78.9077C695.732 76.5083 698.769 56.0659 698.8 52.9972C698.807 52.2592 698.774 51.715 698.585 51.1692C698.209 49.9224 697.09 49.2508 695.266 49.2326ZM692.532 78.1857C692.212 79.1149 691.703 79.5372 690.85 79.5286L690.811 79.5283L689.181 79.512L693.419 51.5062L695.204 51.524C695.748 51.5294 696.018 51.6875 696.208 52.0779C696.322 52.351 696.358 52.6233 696.354 53.0505C696.326 55.8473 693.051 76.7924 692.532 78.1857ZM702.439 73.5062L704.146 61.9078L711.598 61.982L709.642 75.2484C709.435 76.4895 709.47 76.8783 709.936 76.8829C710.324 76.8868 710.559 76.6561 710.685 75.7638L714.596 49.4252L722.048 49.4995L718.22 75.2562C717.555 79.7171 714.499 82.4836 709.687 82.4357C703.36 82.3726 701.604 79.3639 702.478 73.4677L702.439 73.5062ZM724.105 49.5589L720.531 73.2204C719.655 79.2719 721.563 82.593 727.89 82.656C733.246 82.7094 735.721 79.7039 736.429 74.9716L740.213 49.7194L732.76 49.6452L728.771 76.0607C728.646 76.8364 728.489 77.0679 728.101 77.0641C727.713 77.0602 727.403 76.9406 727.567 76.0487L731.557 49.6332L724.105 49.5589ZM741.998 49.6983L748.48 49.7629L745.705 71.218L744.752 77.2299L745.683 77.2392L746.636 71.2273L750.188 49.7799L761.56 49.8932L758.746 71.3479L757.793 77.3598L758.725 77.3691L759.677 71.3572L763.307 49.9106L769.867 49.976L764.146 82.551L752.153 82.4315L754.655 61.1291L755.609 55.0007L754.678 54.9914L753.724 61.1198L749.941 82.4095L737.947 82.29L741.998 49.6983ZM784.655 50.1233L771.769 49.9949L766.863 82.5781L779.788 82.7069L780.828 75.7247L775.317 75.6698L776.229 69.8517L781.197 69.9012L782.276 62.9194L777.269 62.8695L778.103 57.0506L783.615 57.1056L784.655 50.1233ZM786.751 50.1442L794.125 50.2177L790.299 75.819L796.276 75.8786L795.236 82.8608L781.846 82.7274L786.751 50.1442ZM688.298 12.2577L696.022 12.3347C699.244 12.3668 701.326 13.7083 702.547 15.8571C703.043 16.7556 703.382 17.769 703.371 18.8954C703.346 21.3814 702.881 25.1839 701.696 27.2698C700.906 28.6216 699.423 29.3838 697.556 29.7537L697.548 30.6471L700.606 31.4157L699.772 45.0041L692.747 44.9341L693.409 33.0921L692.632 33.0844L690.845 44.9151L683.393 44.8408L688.298 12.2577ZM693.787 26.2975C694.33 26.303 694.642 26.1507 694.919 25.6873C695.195 25.185 696.151 18.8624 696.155 18.4351C696.157 18.2409 696.12 18.1239 696.005 17.9674C695.814 17.6547 695.544 17.4578 695.272 17.4551L695.001 17.4524L693.67 26.2964L693.787 26.2975ZM722.105 12.5946L708.521 12.4592L701.248 45.0188L709.205 45.098L710.644 36.9544L712.546 36.9733L711.572 45.1216L719.529 45.2009L722.105 12.5946ZM714.285 22.1897L713.353 29.9888L711.917 29.9745L713.315 22.18L714.058 17.6811L714.99 17.6904L714.285 22.1897ZM724.744 12.6209L731.226 12.6854L728.45 34.1405L727.498 40.1524L728.429 40.1617L729.382 34.1498L732.934 12.7025L744.306 12.8158L741.492 34.2705L740.539 40.2824L741.47 40.2917L742.423 34.2798L746.053 12.8332L752.612 12.8986L746.892 45.4736L734.899 45.3541L737.401 24.0516L738.355 17.9232L737.424 17.9139L736.47 24.0424L732.686 45.332L720.693 45.2125L724.744 12.6209ZM768.798 13.0598L755.213 12.9245L747.94 45.484L755.897 45.5633L757.337 37.4196L759.239 37.4386L758.265 45.5869L766.221 45.6662L768.798 13.0598ZM761.016 22.6554L760.084 30.4545L758.648 30.4401L760.046 22.6457L760.789 18.1468L761.721 18.1561L761.016 22.6554ZM772.874 13.1004L780.248 13.1739L776.422 38.7753L782.399 38.8348L781.359 45.817L767.968 45.6836L772.874 13.1004ZM795.036 13.3213L787.662 13.2478L782.757 45.831L796.147 45.9644L797.187 38.9822L791.21 38.9226L795.036 13.3213Z" fill="black"/>
<path fill-rule="evenodd" clip-rule="evenodd" d="M1257.62 17.9324L1250.16 17.8581L1245.26 50.4413L1252.71 50.5155L1253.88 42.7576L1254.74 41.2124L1256.01 50.5484L1263.81 50.6262L1260.73 32.9197L1268.87 18.0446L1260.76 17.9637L1253.3 33.7781L1252.37 33.7688L1256.66 24.1385L1257.62 17.9324ZM1261.13 54.8729L1265.24 54.9139L1263.63 81.0034L1262.92 85.8523L1263.46 85.8577L1268.12 54.9814L1270.29 55.003L1265.38 87.5862L1261.27 87.5452L1262.89 61.4557L1263.6 56.6068L1263.05 56.6014L1258.4 87.4777L1256.22 87.4561L1261.13 54.8729ZM1245.99 82.3817L1250.18 54.8028L1252.55 54.8264L1248.31 82.6768C1248.02 84.5774 1248.48 85.4366 1249.61 85.4478C1250.73 85.459 1251.4 84.6111 1251.69 82.7104L1255.89 54.8596L1258.26 54.8832L1254.02 82.8502C1253.56 86.0311 1252.26 87.7275 1249.47 87.6996C1246.44 87.6694 1245.53 85.8733 1246.03 82.4209L1245.99 82.3817ZM1277.24 55.0334L1273.39 54.9951L1268.49 87.5783L1272.76 87.6208C1274.93 87.6425 1276.03 86.7599 1276.79 84.7085C1277.7 82.3091 1280.74 61.8667 1280.77 58.798C1280.78 58.06 1280.74 57.5158 1280.56 56.97C1280.18 55.7232 1279.06 55.0516 1277.24 55.0334ZM1274.5 83.9865C1274.18 84.9157 1273.67 85.3379 1272.82 85.3294L1272.78 85.329L1271.15 85.3128L1275.39 57.307L1277.18 57.3248C1277.72 57.3302 1277.99 57.4883 1278.18 57.8787C1278.29 58.1517 1278.33 58.424 1278.32 58.8513C1278.3 61.6481 1275.02 82.5932 1274.5 83.9865ZM1284.41 79.307L1286.12 67.7085L1293.57 67.7828L1291.61 81.0492C1291.41 82.2903 1291.44 82.6791 1291.91 82.6837C1292.3 82.6876 1292.53 82.4569 1292.66 81.5646L1296.57 55.226L1304.02 55.3003L1300.19 81.057C1299.53 85.5178 1296.47 88.2844 1291.66 88.2365C1285.33 88.1734 1283.58 85.1647 1284.45 79.2685L1284.41 79.307ZM1306.08 55.3597L1302.5 79.0212C1301.63 85.0727 1303.53 88.3938 1309.86 88.4568C1315.22 88.5102 1317.69 85.5047 1318.4 80.7723L1322.18 55.5202L1314.73 55.446L1310.74 81.8615C1310.62 82.6372 1310.46 82.8687 1310.07 82.8648C1309.68 82.861 1309.37 82.7413 1309.54 81.8495L1313.53 55.434L1306.08 55.3597ZM1323.97 55.4991L1330.45 55.5637L1327.68 77.0188L1326.72 83.0307L1327.65 83.0399L1328.61 77.028L1332.16 55.5807L1343.53 55.694L1340.72 77.1487L1339.76 83.1606L1340.7 83.1699L1341.65 77.158L1345.28 55.7114L1351.84 55.7768L1346.12 88.3518L1334.12 88.2323L1336.63 66.9299L1337.58 60.8014L1336.65 60.7922L1335.7 66.9206L1331.91 88.2102L1319.92 88.0907L1323.97 55.4991ZM1366.63 55.9241L1353.74 55.7957L1348.83 88.3789L1361.76 88.5077L1362.8 81.5255L1357.29 81.4705L1358.2 75.6525L1363.17 75.702L1364.25 68.7202L1359.24 68.6703L1360.07 62.8514L1365.59 62.9063L1366.63 55.9241ZM1368.72 55.945L1376.1 56.0185L1372.27 81.6198L1378.25 81.6794L1377.21 88.6616L1363.82 88.5282L1368.72 55.945ZM1270.27 18.0585L1277.99 18.1354C1281.21 18.1675 1283.3 19.5091 1284.52 21.6579C1285.01 22.5563 1285.35 23.5698 1285.34 24.6962C1285.32 27.1822 1284.85 30.9847 1283.67 33.0706C1282.88 34.4224 1281.39 35.1846 1279.53 35.5545L1279.52 36.4479L1282.58 37.2165L1281.74 50.8048L1274.72 50.7348L1275.38 38.8929L1274.6 38.8852L1272.82 50.7159L1265.36 50.6416L1270.27 18.0585ZM1275.76 32.0983C1276.3 32.1037 1276.61 31.9515 1276.89 31.488C1277.17 30.9858 1278.12 24.6631 1278.13 24.2359C1278.13 24.0416 1278.09 23.9247 1277.98 23.7682C1277.78 23.4555 1277.52 23.2586 1277.24 23.2559L1276.97 23.2532L1275.64 32.0972L1275.76 32.0983ZM1304.08 18.3953L1290.49 18.26L1283.22 50.8195L1291.18 50.8988L1292.62 42.7552L1294.52 42.7741L1293.54 50.9224L1301.5 51.0017L1304.08 18.3953ZM1296.26 27.9905L1295.32 35.7896L1293.89 35.7753L1295.29 27.9808L1296.03 23.4819L1296.96 23.4912L1296.26 27.9905ZM1306.72 18.4216L1313.2 18.4862L1310.42 39.9413L1309.47 45.9532L1310.4 45.9625L1311.35 39.9506L1314.9 18.5032L1326.28 18.6166L1323.46 40.0713L1322.51 46.0832L1323.44 46.0924L1324.39 40.0806L1328.02 18.634L1334.58 18.6993L1328.86 51.2744L1316.87 51.1549L1319.37 29.8524L1320.33 23.724L1319.39 23.7147L1318.44 29.8431L1314.66 51.1328L1302.66 51.0133L1306.72 18.4216ZM1350.77 18.8606L1337.18 18.7252L1329.91 51.2848L1337.87 51.3641L1339.31 43.2204L1341.21 43.2394L1340.24 51.3877L1348.19 51.467L1350.77 18.8606ZM1342.99 28.4561L1342.06 36.2552L1340.62 36.2409L1342.02 28.4465L1342.76 23.9475L1343.69 23.9568L1342.99 28.4561ZM1354.84 18.9012L1362.22 18.9747L1358.39 44.576L1364.37 44.6356L1363.33 51.6178L1349.94 51.4844L1354.84 18.9012ZM1377.01 19.1221L1369.63 19.0486L1364.73 51.6317L1378.12 51.7652L1379.16 44.7829L1373.18 44.7234L1377.01 19.1221Z" fill="black"/>
<path fill-rule="evenodd" clip-rule="evenodd" d="M481.655 10.198L474.203 10.1238L469.297 42.7069L476.75 42.7812L477.914 35.0232L478.783 33.478L480.049 42.814L487.85 42.8918L484.766 25.1854L492.911 10.3102L484.799 10.2293L477.343 26.0438L476.412 26.0345L480.7 16.4041L481.655 10.198ZM485.168 47.1385L489.282 47.1795L487.664 73.269L486.956 78.1179L487.499 78.1233L492.154 47.247L494.328 47.2687L489.423 79.8518L485.308 79.8108L486.927 53.7213L487.635 48.8724L487.092 48.867L482.437 79.7433L480.263 79.7217L485.168 47.1385ZM470.027 74.6473L474.223 47.0684L476.59 47.092L472.353 74.9424C472.063 76.843 472.52 77.7022 473.646 77.7135C474.771 77.7247 475.44 76.8767 475.73 74.976L479.928 47.1253L482.296 47.1489L478.058 75.1158C477.599 78.2967 476.301 79.9931 473.507 79.9652C470.479 79.9351 469.565 78.139 470.066 74.6865L470.027 74.6473ZM501.276 47.299L497.433 47.2608L492.528 79.8439L496.798 79.8864C498.971 79.9081 500.067 79.0255 500.825 76.9742C501.742 74.5747 504.779 54.1323 504.81 51.0636C504.817 50.3256 504.783 49.7814 504.595 49.2356C504.219 47.9888 503.1 47.3172 501.276 47.299ZM498.542 76.2522C498.222 77.1813 497.713 77.6036 496.859 77.595L496.82 77.5947L495.19 77.5784L499.429 49.5726L501.214 49.5904C501.758 49.5959 502.028 49.7539 502.218 50.1443C502.332 50.4174 502.368 50.6897 502.363 51.117C502.336 53.9137 499.06 74.8588 498.542 76.2522ZM508.449 71.5726L510.156 59.9742L517.608 60.0484L515.651 73.3148C515.445 74.5559 515.48 74.9447 515.946 74.9494C516.334 74.9532 516.569 74.7225 516.694 73.8302L520.606 47.4917L528.058 47.5659L524.23 73.3226C523.565 77.7835 520.509 80.5501 515.696 80.5021C509.37 80.4391 507.614 77.4303 508.488 71.5341L508.449 71.5726ZM530.115 47.6253L526.541 71.2868C525.665 77.3383 527.573 80.6594 533.9 80.7224C539.256 80.7758 541.731 77.7703 542.438 73.038L546.222 47.7859L538.77 47.7116L534.78 74.1271C534.656 74.9028 534.499 75.1343 534.11 75.1305C533.722 75.1266 533.413 75.007 533.577 74.1151L537.567 47.6996L530.115 47.6253ZM548.008 47.7647L554.49 47.8293L551.714 69.2844L550.762 75.2963L551.693 75.3056L552.646 69.2937L556.198 47.8463L567.57 47.9596L564.756 69.4143L563.803 75.4262L564.735 75.4355L565.687 69.4236L569.317 47.977L575.876 48.0424L570.156 80.6174L558.163 80.4979L560.665 59.1955L561.619 53.0671L560.688 53.0578L559.734 59.1862L555.95 80.4759L543.957 80.3564L548.008 47.7647ZM590.665 48.1898L577.778 48.0613L572.873 80.6445L585.798 80.7733L586.838 73.7911L581.327 73.7362L582.239 67.9181L587.207 67.9676L588.286 60.9858L583.279 60.9359L584.113 55.1171L589.624 55.172L590.665 48.1898ZM592.76 48.2106L600.135 48.2841L596.309 73.8854L602.286 73.945L601.246 80.9272L587.855 80.7938L592.76 48.2106ZM494.308 10.3241L502.032 10.4011C505.253 10.4332 507.336 11.7747 508.557 13.9235C509.053 14.822 509.392 15.8354 509.381 16.9619C509.356 19.4479 508.891 23.2503 507.706 25.3363C506.916 26.6881 505.433 27.4502 503.566 27.8201L503.557 28.7135L506.616 29.4821L505.782 43.0705L498.757 43.0005L499.418 31.1585L498.642 31.1508L496.855 42.9815L489.403 42.9073L494.308 10.3241ZM499.797 24.3639C500.34 24.3694 500.652 24.2171 500.928 23.7537C501.205 23.2514 502.161 16.9288 502.165 16.5015C502.167 16.3073 502.129 16.1903 502.015 16.0338C501.824 15.7211 501.554 15.5242 501.282 15.5215L501.01 15.5188L499.68 24.3628L499.797 24.3639ZM528.115 10.661L514.53 10.5256L507.257 43.0852L515.214 43.1645L516.654 35.0208L518.556 35.0397L517.582 43.188L525.539 43.2673L528.115 10.661ZM520.295 20.2561L519.363 28.0552L517.927 28.0409L519.324 20.2464L520.068 15.7475L521 15.7568L520.295 20.2561ZM530.754 10.6873L537.236 10.7519L534.46 32.2069L533.507 38.2188L534.439 38.2281L535.392 32.2162L538.944 10.7689L550.316 10.8822L547.501 32.3369L546.549 38.3488L547.48 38.3581L548.433 32.3462L552.063 10.8996L558.622 10.965L552.902 43.54L540.908 43.4205L543.411 22.1181L544.365 15.9896L543.433 15.9803L542.479 22.1088L538.696 43.3984L526.703 43.2789L530.754 10.6873ZM574.807 11.1262L561.223 10.9909L553.95 43.5504L561.907 43.6297L563.346 35.4861L565.248 35.505L564.274 43.6533L572.231 43.7326L574.807 11.1262ZM567.026 20.7218L566.094 28.5209L564.658 28.5065L566.056 20.7121L566.799 16.2132L567.731 16.2225L567.026 20.7218ZM578.883 11.1668L586.258 11.2403L582.432 36.8417L588.409 36.9012L587.369 43.8834L573.978 43.75L578.883 11.1668ZM601.046 11.3877L593.672 11.3142L588.766 43.8974L602.157 44.0308L603.197 37.0486L597.22 36.989L601.046 11.3877Z" fill="black"/>
<path fill-rule="evenodd" clip-rule="evenodd" d="M93.6741 6.33474L86.2219 6.26048L81.3167 38.8436L88.7689 38.9179L89.9331 31.16L90.8025 29.6147L92.0681 38.9508L99.8697 39.0285L96.7854 21.3221L104.93 6.4469L96.818 6.36607L89.3627 22.1805L88.4312 22.1712L92.7194 12.5409L93.6741 6.33474ZM97.1874 43.2753L101.302 43.3163L99.6831 69.4057L98.9749 74.2546L99.5183 74.2601L104.173 43.3837L106.347 43.4054L101.442 75.9885L97.3277 75.9475L98.9462 49.858L99.6544 45.0091L99.1111 45.0037L94.4558 75.8801L92.2823 75.8584L97.1874 43.2753ZM82.0466 70.784L86.2419 43.2051L88.6096 43.2287L84.3727 71.0791C84.082 72.9798 84.5393 73.839 85.6649 73.8502C86.7905 73.8614 87.4588 73.0134 87.7495 71.1128L91.9476 43.262L94.3152 43.2856L90.0771 71.2525C89.6184 74.4334 88.3205 76.1298 85.526 76.102C82.4985 76.0718 81.5848 74.2757 82.085 70.8232L82.0466 70.784ZM113.295 43.4358L109.453 43.3975L104.547 75.9806L108.817 76.0232C110.99 76.0448 112.086 75.1622 112.844 73.1109C113.761 70.7115 116.798 50.269 116.829 47.2003C116.836 46.4623 116.803 45.9181 116.614 45.3724C116.238 44.1255 115.119 43.4539 113.295 43.4358ZM110.561 72.3889C110.241 73.318 109.732 73.7403 108.879 73.7318L108.84 73.7314L107.21 73.7151L111.448 45.7094L113.233 45.7272C113.777 45.7326 114.047 45.8907 114.237 46.281C114.351 46.5541 114.387 46.8264 114.383 47.2537C114.355 50.0504 111.08 70.9955 110.561 72.3889ZM120.468 67.7093L122.175 56.1109L129.627 56.1851L127.671 69.4515C127.464 70.6926 127.499 71.0814 127.965 71.0861C128.353 71.0899 128.588 70.8592 128.714 69.967L132.625 43.6284L140.077 43.7026L136.249 69.4593C135.584 73.9202 132.528 76.6868 127.716 76.6388C121.389 76.5758 119.633 73.567 120.507 67.6709L120.468 67.7093ZM142.134 43.7621L138.56 67.4235C137.684 73.475 139.592 76.7961 145.919 76.8591C151.275 76.9125 153.751 73.9071 154.458 69.1747L158.242 43.9226L150.789 43.8483L146.8 70.2638C146.676 71.0395 146.518 71.271 146.13 71.2672C145.742 71.2633 145.432 71.1437 145.596 70.2518L149.586 43.8363L142.134 43.7621ZM160.027 43.9014L166.509 43.966L163.734 65.4211L162.781 71.433L163.712 71.4423L164.665 65.4304L168.217 43.983L179.59 44.0963L176.775 65.5511L175.822 71.563L176.754 71.5722L177.707 65.5603L181.336 44.1138L187.896 44.1791L182.175 76.7541L170.182 76.6346L172.685 55.3322L173.638 49.2038L172.707 49.1945L171.753 55.3229L167.97 76.6126L155.976 76.4931L160.027 43.9014ZM202.684 44.3265L189.798 44.1981L184.893 76.7812L197.817 76.91L198.857 69.9278L193.346 69.8729L194.258 64.0548L199.226 64.1043L200.305 57.1225L195.298 57.0726L196.132 51.2538L201.644 51.3087L202.684 44.3265ZM204.78 44.3474L212.154 44.4208L208.328 70.0222L214.305 70.0817L213.265 77.0639L199.875 76.9305L204.78 44.3474ZM106.327 6.46082L114.051 6.53778C117.273 6.56989 119.355 7.91146 120.576 10.0602C121.072 10.9587 121.411 11.9721 121.4 13.0986C121.375 15.5846 120.91 19.387 119.725 21.473C118.935 22.8248 117.452 23.587 115.586 23.9568L115.577 24.8502L118.636 25.6188L117.801 39.2072L110.776 39.1372L111.438 27.2952L110.661 27.2875L108.874 39.1182L101.422 39.044L106.327 6.46082ZM111.816 20.5007C112.359 20.5061 112.671 20.3538 112.948 19.8904C113.224 19.3881 114.18 13.0655 114.184 12.6382C114.186 12.444 114.149 12.3271 114.034 12.1705C113.843 11.8578 113.573 11.6609 113.301 11.6582L113.03 11.6555L111.699 20.4995L111.816 20.5007ZM140.134 6.79769L126.55 6.66232L119.277 39.2219L127.234 39.3012L128.673 31.1575L130.575 31.1765L129.601 39.3248L137.558 39.404L140.134 6.79769ZM132.314 16.3928L131.382 24.1919L129.946 24.1776L131.344 16.3832L132.087 11.8842L133.019 11.8935L132.314 16.3928ZM142.773 6.82398L149.255 6.88857L146.479 28.3437L145.527 34.3556L146.458 34.3648L147.411 28.3529L150.963 6.90559L162.335 7.01891L159.521 28.4736L158.568 34.4855L159.5 34.4948L160.452 28.4829L164.082 7.03631L170.641 7.10168L164.921 39.6767L152.928 39.5572L155.43 18.2548L156.384 12.1263L155.453 12.1171L154.499 18.2455L150.715 39.5352L138.722 39.4156L142.773 6.82398ZM186.827 7.26295L173.242 7.12759L165.969 39.6871L173.926 39.7664L175.366 31.6228L177.268 31.6417L176.294 39.79L184.25 39.8693L186.827 7.26295ZM179.045 16.8585L178.113 24.6576L176.677 24.6433L178.075 16.8488L178.818 12.3499L179.75 12.3592L179.045 16.8585ZM190.903 7.30357L198.277 7.37705L194.451 32.9784L200.428 33.0379L199.388 40.0202L185.997 39.8867L190.903 7.30357ZM213.065 7.52441L205.691 7.45092L200.786 40.0341L214.176 40.1675L215.216 33.1853L209.239 33.1257L213.065 7.52441Z" fill="black"/>
<path fill-rule="evenodd" clip-rule="evenodd" d="M1645.6 21.7957L1638.14 21.7214L1633.24 54.3046L1640.69 54.3788L1641.86 46.6209L1642.73 45.0757L1643.99 54.4117L1651.79 54.4894L1648.71 36.783L1656.85 21.9078L1648.74 21.827L1641.29 37.6414L1640.35 37.6321L1644.64 28.0018L1645.6 21.7957ZM1649.11 58.7362L1653.22 58.7772L1651.61 84.8667L1650.9 89.7156L1651.44 89.721L1656.1 58.8447L1658.27 58.8663L1653.36 91.4495L1649.25 91.4085L1650.87 65.319L1651.58 60.4701L1651.03 60.4647L1646.38 91.341L1644.21 91.3193L1649.11 58.7362ZM1633.97 86.2449L1638.16 58.6661L1640.53 58.6897L1636.3 86.5401C1636 88.4407 1636.46 89.2999 1637.59 89.3111C1638.71 89.3223 1639.38 88.4743 1639.67 86.5737L1643.87 58.7229L1646.24 58.7465L1642 86.7134C1641.54 89.8944 1640.24 91.5907 1637.45 91.5629C1634.42 91.5327 1633.51 89.7366 1634.01 86.2842L1633.97 86.2449ZM1665.22 58.8967L1661.38 58.8584L1656.47 91.4416L1660.74 91.4841C1662.91 91.5058 1664.01 90.6232 1664.77 88.5718C1665.68 86.1724 1668.72 65.7299 1668.75 62.6613C1668.76 61.9233 1668.73 61.3791 1668.54 60.8333C1668.16 59.5864 1667.04 58.9149 1665.22 58.8967ZM1662.48 87.8498C1662.16 88.779 1661.66 89.2012 1660.8 89.1927L1660.76 89.1923L1659.13 89.1761L1663.37 61.1703L1665.16 61.1881C1665.7 61.1935 1665.97 61.3516 1666.16 61.742C1666.27 62.015 1666.31 62.2873 1666.31 62.7146C1666.28 65.5114 1663 86.4565 1662.48 87.8498ZM1672.39 83.1703L1674.1 71.5718L1681.55 71.6461L1679.59 84.9125C1679.39 86.1536 1679.42 86.5424 1679.89 86.547C1680.28 86.5509 1680.51 86.3201 1680.64 85.4279L1684.55 59.0893L1692 59.1636L1688.17 84.9203C1687.51 89.3811 1684.45 92.1477 1679.64 92.0997C1673.31 92.0367 1671.56 89.0279 1672.43 83.1318L1672.39 83.1703ZM1694.06 59.223L1690.48 82.8845C1689.61 88.936 1691.52 92.257 1697.84 92.3201C1703.2 92.3734 1705.67 89.368 1706.38 84.6356L1710.16 59.3835L1702.71 59.3093L1698.72 85.7247C1698.6 86.5005 1698.44 86.732 1698.05 86.7281C1697.66 86.7242 1697.36 86.6046 1697.52 85.7128L1701.51 59.2973L1694.06 59.223ZM1711.95 59.3624L1718.43 59.4269L1715.66 80.882L1714.7 86.8939L1715.64 86.9032L1716.59 80.8913L1720.14 59.444L1731.51 59.5573L1728.7 81.012L1727.75 87.0239L1728.68 87.0332L1729.63 81.0213L1733.26 59.5747L1739.82 59.6401L1734.1 92.2151L1722.1 92.0956L1724.61 70.7932L1725.56 64.6647L1724.63 64.6554L1723.68 70.7839L1719.89 92.0735L1707.9 91.954L1711.95 59.3624ZM1754.61 59.7874L1741.72 59.659L1736.82 92.2422L1749.74 92.3709L1750.78 85.3887L1745.27 85.3338L1746.18 79.5158L1751.15 79.5653L1752.23 72.5834L1747.22 72.5335L1748.06 66.7147L1753.57 66.7696L1754.61 59.7874ZM1756.7 59.8083L1764.08 59.8818L1760.25 85.4831L1766.23 85.5427L1765.19 92.5249L1751.8 92.3914L1756.7 59.8083ZM1658.25 21.9218L1665.97 21.9987C1669.2 22.0308 1671.28 23.3724 1672.5 25.5212C1672.99 26.4196 1673.33 27.433 1673.32 28.5595C1673.3 31.0455 1672.83 34.8479 1671.65 36.9339C1670.86 38.2857 1669.38 39.0479 1667.51 39.4178L1667.5 40.3112L1670.56 41.0798L1669.72 54.6681L1662.7 54.5981L1663.36 42.7562L1662.58 42.7484L1660.8 54.5792L1653.34 54.5049L1658.25 21.9218ZM1663.74 35.9616C1664.28 35.967 1664.59 35.8147 1664.87 35.3513C1665.15 34.8491 1666.1 28.5264 1666.11 28.0991C1666.11 27.9049 1666.07 27.788 1665.96 27.6315C1665.77 27.3188 1665.5 27.1218 1665.22 27.1191L1664.95 27.1164L1663.62 35.9604L1663.74 35.9616ZM1692.06 22.2586L1678.47 22.1233L1671.2 54.6828L1679.16 54.7621L1680.6 46.6184L1682.5 46.6374L1681.52 54.7857L1689.48 54.865L1692.06 22.2586ZM1684.24 31.8538L1683.31 39.6529L1681.87 39.6386L1683.27 31.8441L1684.01 27.3452L1684.94 27.3545L1684.24 31.8538ZM1694.7 22.2849L1701.18 22.3495L1698.4 43.8046L1697.45 49.8165L1698.38 49.8258L1699.33 43.8139L1702.89 22.3665L1714.26 22.4798L1711.44 43.9346L1710.49 49.9464L1711.42 49.9557L1712.38 43.9438L1716 22.4973L1722.56 22.5626L1716.84 55.1376L1704.85 55.0181L1707.35 33.7157L1708.31 27.5873L1707.38 27.578L1706.42 33.7064L1702.64 54.9961L1690.64 54.8766L1694.7 22.2849ZM1738.75 22.7239L1725.16 22.5885L1717.89 55.1481L1725.85 55.2274L1727.29 47.0837L1729.19 47.1027L1728.22 55.251L1736.17 55.3302L1738.75 22.7239ZM1730.97 32.3194L1730.04 40.1185L1728.6 40.1042L1730 32.3098L1730.74 27.8108L1731.67 27.8201L1730.97 32.3194ZM1742.83 22.7645L1750.2 22.838L1746.37 48.4393L1752.35 48.4989L1751.31 55.4811L1737.92 55.3477L1742.83 22.7645ZM1764.99 22.9853L1757.61 22.9119L1752.71 55.495L1766.1 55.6284L1767.14 48.6462L1761.16 48.5867L1764.99 22.9853Z" fill="black"/>
<path fill-rule="evenodd" clip-rule="evenodd" d="M869.636 14.0652L862.183 13.9909L857.278 46.5741L864.73 46.6484L865.895 38.8904L866.764 37.3452L868.03 46.6812L875.831 46.759L872.747 29.0526L880.891 14.1774L872.779 14.0965L865.324 29.9109L864.393 29.9017L868.681 20.2713L869.636 14.0652ZM873.149 51.0057L877.263 51.0467L875.644 77.1362L874.936 81.9851L875.48 81.9905L880.135 51.1142L882.308 51.1358L877.403 83.719L873.289 83.678L874.908 57.5885L875.616 52.7396L875.072 52.7342L870.417 83.6105L868.244 83.5889L873.149 51.0057ZM858.008 78.5145L862.203 50.9356L864.571 50.9592L860.334 78.8096C860.043 80.7102 860.501 81.5694 861.626 81.5806C862.752 81.5919 863.42 80.7439 863.711 78.8432L867.909 50.9925L870.277 51.016L866.039 78.983C865.58 82.1639 864.282 83.8603 861.487 83.8324C858.46 83.8023 857.546 82.0062 858.046 78.5537L858.008 78.5145ZM889.257 51.1662L885.414 51.1279L880.509 83.7111L884.778 83.7536C886.952 83.7753 888.048 82.8927 888.806 80.8413C889.722 78.4419 892.76 57.9995 892.79 54.9308C892.798 54.1928 892.764 53.6486 892.576 53.1028C892.2 51.856 891.081 51.1844 889.257 51.1662ZM886.523 80.1193C886.203 81.0485 885.694 81.4707 884.84 81.4622L884.801 81.4618L883.171 81.4456L887.409 53.4398L889.195 53.4576C889.738 53.463 890.008 53.6211 890.199 54.0115C890.312 54.2846 890.348 54.5569 890.344 54.9841C890.316 57.7809 887.041 78.726 886.523 80.1193ZM896.429 75.4398L898.137 63.8414L905.589 63.9156L903.632 77.182C903.426 78.4231 903.461 78.8119 903.926 78.8165C904.315 78.8204 904.55 78.5897 904.675 77.6974L908.586 51.3588L916.039 51.4331L912.211 77.1898C911.545 81.6506 908.49 84.4172 903.677 84.3693C897.35 84.3062 895.595 81.2975 896.469 75.4013L896.429 75.4398ZM918.095 51.4925L914.521 75.154C913.646 81.2055 915.554 84.5266 921.88 84.5896C927.237 84.643 929.712 81.6375 930.419 76.9052L934.203 51.653L926.751 51.5788L922.761 77.9943C922.637 78.77 922.479 79.0015 922.091 78.9976C921.703 78.9938 921.394 78.8741 921.558 77.9823L925.548 51.5668L918.095 51.4925ZM935.989 51.6319L942.471 51.6965L939.695 73.1516L938.742 79.1635L939.674 79.1728L940.627 73.1609L944.179 51.7135L955.551 51.8268L952.736 73.2815L951.784 79.2934L952.715 79.3027L953.668 73.2908L957.298 51.8442L963.857 51.9096L958.137 84.4846L946.143 84.3651L948.646 63.0627L949.6 56.9343L948.668 56.925L947.714 63.0534L943.931 84.3431L931.938 84.2236L935.989 51.6319ZM978.645 52.0569L965.759 51.9285L960.854 84.5117L973.779 84.6405L974.819 77.6583L969.307 77.6033L970.219 71.7853L975.187 71.8348L976.266 64.853L971.259 64.8031L972.094 58.9842L977.605 59.0392L978.645 52.0569ZM980.741 52.0778L988.116 52.1513L984.289 77.7526L990.267 77.8122L989.227 84.7944L975.836 84.661L980.741 52.0778ZM882.289 14.1913L890.013 14.2683C893.234 14.3004 895.317 15.6419 896.538 17.7907C897.033 18.6891 897.373 19.7026 897.361 20.829C897.337 23.315 896.872 27.1175 895.686 29.2034C894.897 30.5552 893.414 31.3174 891.547 31.6873L891.538 32.5807L894.597 33.3493L893.763 46.9377L886.738 46.8676L887.399 35.0257L886.623 35.018L884.836 46.8487L877.383 46.7744L882.289 14.1913ZM887.777 28.2311C888.321 28.2366 888.633 28.0843 888.909 27.6209C889.186 27.1186 890.142 20.7959 890.146 20.3687C890.148 20.1744 890.11 20.0575 889.995 19.901C889.804 19.5883 889.534 19.3914 889.263 19.3887L888.991 19.386L887.661 28.23L887.777 28.2311ZM916.096 14.5282L902.511 14.3928L895.238 46.9524L903.195 47.0316L904.635 38.888L906.537 38.9069L905.563 47.0552L913.519 47.1345L916.096 14.5282ZM908.275 24.1233L907.344 31.9224L905.908 31.9081L907.305 24.1136L908.049 19.6147L908.98 19.624L908.275 24.1233ZM918.735 14.5545L925.216 14.619L922.441 36.0741L921.488 42.086L922.42 42.0953L923.372 36.0834L926.924 14.6361L938.297 14.7494L935.482 36.2041L934.529 42.216L935.461 42.2253L936.414 36.2134L940.043 14.7668L946.603 14.8321L940.883 47.4072L928.889 47.2877L931.392 25.9852L932.346 19.8568L931.414 19.8475L930.46 25.976L926.677 47.2656L914.683 47.1461L918.735 14.5545ZM962.788 14.9934L949.203 14.8581L941.931 47.4176L949.887 47.4969L951.327 39.3532L953.229 39.3722L952.255 47.5205L960.212 47.5998L962.788 14.9934ZM955.007 24.589L954.075 32.388L952.639 32.3737L954.036 24.5793L954.78 20.0804L955.711 20.0896L955.007 24.589ZM966.864 15.034L974.239 15.1075L970.412 40.7088L976.39 40.7684L975.35 47.7506L961.959 47.6172L966.864 15.034ZM989.027 15.2549L981.652 15.1814L976.747 47.7645L990.138 47.898L991.178 40.9158L985.201 40.8562L989.027 15.2549Z" fill="black"/>
</svg>
