<svg width="73" height="73" viewBox="0 0 73 73" fill="none" xmlns="http://www.w3.org/2000/svg">
<path d="M36.5 0L38.6371 20.9512L46.3476 1.35352L42.7529 22.1044L55.4648 5.31369L46.4049 24.3252L63.1755 11.5868L49.3223 27.449L68.9078 19.7076L51.2888 31.2441L72.2366 29.0739L52.1584 35.4289L72.9149 38.9908L51.8667 39.6932L70.8925 48.7231L50.4354 43.7207L66.3194 57.5488L47.9705 47.2127L59.5347 64.8135L44.6549 49.9101L51.0416 69.9782L40.7345 51.613L41.4701 72.66L36.5 52.195L31.5299 72.66L32.2655 51.613L21.9584 69.9782L28.3451 49.9101L13.4653 64.8135L25.0295 47.2127L6.6806 57.5488L22.5646 43.7207L2.10748 48.7231L21.1333 39.6932L0.0850906 38.9908L20.8416 35.4289L0.763432 29.0739L21.7112 31.2441L4.09219 19.7076L23.6777 27.449L9.82449 11.5868L26.5951 24.3252L17.5352 5.31369L30.2471 22.1044L26.6524 1.35352L34.3629 20.9512L36.5 0Z" fill="#00FFE0"/>
</svg>
